<?xml version="1.0" encoding="UTF-8" standalone="no"?>
<!-- Created with Inkscape (http://www.inkscape.org/) -->

<svg
   xmlns:dc="http://purl.org/dc/elements/1.1/"
   xmlns:cc="http://creativecommons.org/ns#"
   xmlns:rdf="http://www.w3.org/1999/02/22-rdf-syntax-ns#"
   xmlns:svg="http://www.w3.org/2000/svg"
   xmlns="http://www.w3.org/2000/svg"
   xmlns:xlink="http://www.w3.org/1999/xlink"
   xmlns:sodipodi="http://sodipodi.sourceforge.net/DTD/sodipodi-0.dtd"
   xmlns:inkscape="http://www.inkscape.org/namespaces/inkscape"
   width="600"
   height="400"
   id="svg2"
   sodipodi:version="0.32"
   inkscape:version="0.47pre4 r22446"
   version="1.0"
   sodipodi:docname="splash.svg"
   inkscape:output_extension="org.inkscape.output.svg.inkscape">
  <defs
     id="defs4">
    <linearGradient
       inkscape:collect="always"
       id="linearGradient3776">
      <stop
         style="stop-color:#000000;stop-opacity:1;"
         offset="0"
         id="stop3778" />
      <stop
         style="stop-color:#000000;stop-opacity:0;"
         offset="1"
         id="stop3780" />
    </linearGradient>
    <linearGradient
       id="linearGradient3746">
      <stop
         style="stop-color:#0000ff;stop-opacity:1;"
         offset="0"
         id="stop3748" />
      <stop
         style="stop-color:#ebebff;stop-opacity:1;"
         offset="1"
         id="stop3750" />
    </linearGradient>
    <linearGradient
       id="linearGradient2394">
      <stop
         style="stop-color:#518eff;stop-opacity:1;"
         offset="0"
         id="stop2396" />
      <stop
         style="stop-color:#518eff;stop-opacity:0;"
         offset="1"
         id="stop2398" />
    </linearGradient>
    <inkscape:perspective
       sodipodi:type="inkscape:persp3d"
       inkscape:vp_x="0 : 526.18109 : 1"
       inkscape:vp_y="0 : 1000 : 0"
       inkscape:vp_z="744.09448 : 526.18109 : 1"
       inkscape:persp3d-origin="372.04724 : 350.78739 : 1"
       id="perspective10" />
    <inkscape:perspective
       id="perspective2507"
       inkscape:persp3d-origin="372.04724 : 350.78739 : 1"
       inkscape:vp_z="744.09448 : 526.18109 : 1"
       inkscape:vp_y="0 : 1000 : 0"
       inkscape:vp_x="0 : 526.18109 : 1"
       sodipodi:type="inkscape:persp3d" />
    <linearGradient
       inkscape:collect="always"
       xlink:href="#linearGradient2394"
       id="linearGradient2400"
       x1="371.42856"
       y1="779.20099"
       x2="375.71429"
       y2="-49.370457"
       gradientUnits="userSpaceOnUse"
       gradientTransform="matrix(0.7843688,0,0,0.4850879,32.2767,127.95783)" />
    <linearGradient
       inkscape:collect="always"
       xlink:href="#linearGradient3746"
       id="linearGradient3752"
       x1="314.51144"
       y1="297.08716"
       x2="382.23679"
       y2="96.645821"
       gradientUnits="userSpaceOnUse"
       gradientTransform="matrix(-1,0,0,1,557.74284,0)" />
    <inkscape:perspective
       id="perspective3762"
       inkscape:persp3d-origin="0.5 : 0.33333333 : 1"
       inkscape:vp_z="1 : 0.5 : 1"
       inkscape:vp_y="0 : 1000 : 0"
       inkscape:vp_x="0 : 0.5 : 1"
       sodipodi:type="inkscape:persp3d" />
    <linearGradient
       inkscape:collect="always"
       xlink:href="#linearGradient2394-7"
       id="linearGradient2400-6"
       x1="371.42856"
       y1="779.20099"
       x2="375.71429"
       y2="-49.370457"
       gradientUnits="userSpaceOnUse"
       gradientTransform="matrix(0.7843688,0,0,0.4850879,32.2767,127.95783)" />
    <linearGradient
       id="linearGradient2394-7">
      <stop
         style="stop-color:#ffffff;stop-opacity:1;"
         offset="0"
         id="stop2396-4" />
      <stop
         style="stop-color:#003eb1;stop-opacity:1;"
         offset="1"
         id="stop2398-3" />
    </linearGradient>
    <inkscape:perspective
       id="perspective3688"
       inkscape:persp3d-origin="0.5 : 0.33333333 : 1"
       inkscape:vp_z="1 : 0.5 : 1"
       inkscape:vp_y="0 : 1000 : 0"
       inkscape:vp_x="0 : 0.5 : 1"
       sodipodi:type="inkscape:persp3d" />
    <inkscape:perspective
       id="perspective3765"
       inkscape:persp3d-origin="0.5 : 0.33333333 : 1"
       inkscape:vp_z="1 : 0.5 : 1"
       inkscape:vp_y="0 : 1000 : 0"
       inkscape:vp_x="0 : 0.5 : 1"
       sodipodi:type="inkscape:persp3d" />
    <filter
       inkscape:collect="always"
       id="filter3636"
       x="-0.18394824"
       width="1.3678965"
       y="-0.089044383"
       height="1.1780888">
      <feGaussianBlur
         inkscape:collect="always"
         stdDeviation="4.9937756"
         id="feGaussianBlur3638" />
    </filter>
    <filter
       inkscape:collect="always"
       id="filter3648"
       x="-0.083759909"
       width="1.1675198"
       y="-0.12934498"
       height="1.25869">
      <feGaussianBlur
         inkscape:collect="always"
         stdDeviation="1.9848504"
         id="feGaussianBlur3650" />
    </filter>
    <inkscape:perspective
       id="perspective3660"
       inkscape:persp3d-origin="0.5 : 0.33333333 : 1"
       inkscape:vp_z="1 : 0.5 : 1"
       inkscape:vp_y="0 : 1000 : 0"
       inkscape:vp_x="0 : 0.5 : 1"
       sodipodi:type="inkscape:persp3d" />
    <inkscape:perspective
       id="perspective3696"
       inkscape:persp3d-origin="0.5 : 0.33333333 : 1"
       inkscape:vp_z="1 : 0.5 : 1"
       inkscape:vp_y="0 : 1000 : 0"
       inkscape:vp_x="0 : 0.5 : 1"
       sodipodi:type="inkscape:persp3d" />
    <filter
       inkscape:collect="always"
       id="filter3714"
       x="-0.15064011"
       width="1.3012802"
       y="-0.099717514"
       height="1.199435">
      <feGaussianBlur
         inkscape:collect="always"
         stdDeviation="9.5080641"
         id="feGaussianBlur3716" />
    </filter>
    <inkscape:perspective
       id="perspective3726"
       inkscape:persp3d-origin="0.5 : 0.33333333 : 1"
       inkscape:vp_z="1 : 0.5 : 1"
       inkscape:vp_y="0 : 1000 : 0"
       inkscape:vp_x="0 : 0.5 : 1"
       sodipodi:type="inkscape:persp3d" />
    <linearGradient
       inkscape:collect="always"
       xlink:href="#linearGradient3746-3"
       id="linearGradient3752-2"
       x1="328.17902"
       y1="306.95819"
       x2="238.72734"
       y2="79.941017"
       gradientUnits="userSpaceOnUse"
       gradientTransform="matrix(-1,0,0,1,557.74284,0)" />
    <linearGradient
       id="linearGradient3746-3">
      <stop
         style="stop-color:#0000ff;stop-opacity:1;"
         offset="0"
         id="stop3748-1" />
      <stop
         style="stop-color:#ebebff;stop-opacity:1;"
         offset="1"
         id="stop3750-8" />
    </linearGradient>
    <filter
       inkscape:collect="always"
       id="filter3756"
       x="-0.073079498"
       width="1.146159"
       y="-0.33523993"
       height="1.6704799">
      <feGaussianBlur
         inkscape:collect="always"
         stdDeviation="15.680934"
         id="feGaussianBlur3758" />
    </filter>
    <inkscape:perspective
       id="perspective2974"
       inkscape:persp3d-origin="0.5 : 0.33333333 : 1"
       inkscape:vp_z="1 : 0.5 : 1"
       inkscape:vp_y="0 : 1000 : 0"
       inkscape:vp_x="0 : 0.5 : 1"
       sodipodi:type="inkscape:persp3d" />
    <filter
       inkscape:collect="always"
       id="filter3760"
       x="-0.34201939"
       width="1.6840388"
       y="-0.1848592"
       height="1.3697184">
      <feGaussianBlur
         inkscape:collect="always"
         stdDeviation="4.7542971"
         id="feGaussianBlur3762" />
    </filter>
    <filter
       inkscape:collect="always"
       id="filter3764"
       x="-0.22035112"
       width="1.4407022"
       y="-0.26349616"
       height="1.5269923">
      <feGaussianBlur
         inkscape:collect="always"
         stdDeviation="3.3055982"
         id="feGaussianBlur3766" />
    </filter>
    <filter
       inkscape:collect="always"
       id="filter3768"
       x="-0.37289172"
       width="1.7457834"
       y="-0.17694137"
       height="1.3538827">
      <feGaussianBlur
         inkscape:collect="always"
         stdDeviation="9.9362748"
         id="feGaussianBlur3770" />
    </filter>
    <radialGradient
       inkscape:collect="always"
       xlink:href="#linearGradient3776"
       id="radialGradient3782"
       cx="213.71474"
       cy="249.01225"
       fx="213.71474"
       fy="249.01225"
       r="245.4375"
       gradientTransform="matrix(0.69766573,2.7637251e-8,0,0.07506767,286.10442,230.34962)"
       gradientUnits="userSpaceOnUse" />
    <inkscape:perspective
       id="perspective3817"
       inkscape:persp3d-origin="0.5 : 0.33333333 : 1"
       inkscape:vp_z="1 : 0.5 : 1"
       inkscape:vp_y="0 : 1000 : 0"
       inkscape:vp_x="0 : 0.5 : 1"
       sodipodi:type="inkscape:persp3d" />
    <filter
       inkscape:collect="always"
       id="filter3867"
       x="-0.032972385"
       width="1.0659448"
       y="-0.32410706"
       height="1.6482141">
      <feGaussianBlur
         inkscape:collect="always"
         stdDeviation="4.6742544"
         id="feGaussianBlur3869" />
    </filter>
  </defs>
  <sodipodi:namedview
     id="base"
     pagecolor="#ffffff"
     bordercolor="#666666"
     borderopacity="1.0"
     inkscape:pageopacity="0.0"
     inkscape:pageshadow="2"
     inkscape:zoom="1.3169864"
     inkscape:cx="300.51509"
     inkscape:cy="200"
     inkscape:document-units="px"
     inkscape:current-layer="layer1"
     showgrid="false"
     inkscape:window-width="1670"
     inkscape:window-height="964"
     inkscape:window-x="0"
     inkscape:window-y="33"
     inkscape:window-maximized="1" />
  <metadata
     id="metadata7">
    <rdf:RDF>
      <cc:Work
         rdf:about="">
        <dc:format>image/svg+xml</dc:format>
        <dc:type
           rdf:resource="http://purl.org/dc/dcmitype/StillImage" />
      </cc:Work>
    </rdf:RDF>
  </metadata>
  <g
     inkscape:label="Ebene 1"
     inkscape:groupmode="layer"
     id="layer1"
     transform="translate(-18.571431,-120.21934)">
    <rect
       style="opacity:1;fill:url(#linearGradient2400);fill-opacity:1;stroke:none;stroke-width:5;stroke-linecap:butt;stroke-linejoin:miter;stroke-miterlimit:4;stroke-dasharray:none;stroke-dashoffset:0;stroke-opacity:1"
       id="rect2384"
       width="595"
       height="395"
       x="21.07143"
       y="122.71934" />
    <g
       transform="scale(0.99704499,1.0029638)"
       style="font-size:44.72349547999999686px;font-style:normal;font-weight:normal;fill:#000000;fill-opacity:1;stroke:none;stroke-width:2;stroke-miterlimit:4;stroke-opacity:1;font-family:Bitstream Vera Sans"
       id="text3772">
      <path
         d="m 292.82444,263.92474 c -1.54322,0.80071 -3.15193,1.40489 -4.82612,1.81252 -1.67424,0.40764 -3.42125,0.61145 -5.24104,0.61146 -5.43031,-1e-5 -9.73232,-1.51408 -12.90604,-4.54223 -3.17375,-3.04271 -4.76061,-7.16274 -4.76061,-12.36011 0,-5.2119 1.58686,-9.33193 4.76061,-12.36011 3.17372,-3.04268 7.47573,-4.56403 12.90604,-4.56407 1.81979,4e-5 3.5668,0.20386 5.24104,0.61146 1.67419,0.40767 3.2829,1.01184 4.82612,1.81252 l 0,6.74783 c -1.55778,-1.06274 -3.0937,-1.84161 -4.60775,-2.33662 -1.5141,-0.49496 -3.10824,-0.74246 -4.78244,-0.74248 -2.99905,2e-5 -5.35752,0.96088 -7.0754,2.88257 -1.7179,1.92173 -2.57685,4.57136 -2.57684,7.9489 -1e-5,3.36301 0.85894,6.00536 2.57684,7.92706 1.71788,1.92172 4.07635,2.88258 7.0754,2.88257 1.6742,10e-6 3.26834,-0.24749 4.78244,-0.74248 1.51405,-0.49498 3.04997,-1.27385 4.60775,-2.33663 l 0,6.74784"
         style="font-variant:normal;font-weight:bold;font-stretch:normal;stroke:none;font-family:Bitstream Vera Sans;-inkscape-font-specification:Bitstream Vera Sans Bold;fill:#000000;fill-opacity:1"
         id="path3785" />
      <path
         d="m 311.10255,246.25808 c -1.73247,2e-5 -3.05728,0.62603 -3.97445,1.87804 -0.90264,1.23748 -1.35395,3.02817 -1.35394,5.37206 -10e-6,2.34392 0.4513,4.14188 1.35394,5.3939 0.91717,1.23747 2.24198,1.8562 3.97445,1.8562 1.70332,0 3.00629,-0.61873 3.90894,-1.8562 0.9026,-1.25202 1.35391,-3.04998 1.35393,-5.3939 -2e-5,-2.34389 -0.45133,-4.13458 -1.35393,-5.37206 -0.90265,-1.25201 -2.20562,-1.87802 -3.90894,-1.87804 m 0,-5.59043 c 4.20736,2e-5 7.49029,1.13558 9.84878,3.40667 2.37299,2.27113 3.5595,5.41575 3.55953,9.43386 -3e-5,4.01814 -1.18654,7.16275 -3.55953,9.43386 -2.35849,2.27112 -5.64142,3.40667 -9.84878,3.40668 -4.22196,-1e-5 -7.52672,-1.13556 -9.91429,-3.40668 -2.37303,-2.27111 -3.55954,-5.41572 -3.55954,-9.43386 0,-4.01811 1.18651,-7.16273 3.55954,-9.43386 2.38757,-2.27109 5.69233,-3.40665 9.91429,-3.40667"
         style="font-variant:normal;font-weight:bold;font-stretch:normal;stroke:none;font-family:Bitstream Vera Sans;-inkscape-font-specification:Bitstream Vera Sans Bold;fill:#000000;fill-opacity:1"
         id="path3787" />
      <path
         d="m 354.79967,250.82215 0,14.89327 -7.86155,0 0,-2.42397 0,-8.97528 c -2e-5,-2.11096 -0.051,-3.5668 -0.15286,-4.36753 -0.0874,-0.80069 -0.24752,-1.39031 -0.48043,-1.76884 -0.30575,-0.50953 -0.72066,-0.90261 -1.24475,-1.17924 -0.52412,-0.29115 -1.12101,-0.43673 -1.79068,-0.43675 -1.63056,2e-5 -2.9117,0.63331 -3.84343,1.89987 -0.93175,1.25205 -1.39762,2.99178 -1.39761,5.2192 l 0,12.03254 -7.81787,0 0,-24.45816 7.81787,0 0,3.58138 c 1.17922,-1.42671 2.43125,-2.47491 3.75608,-3.14463 1.3248,-0.68422 2.78792,-1.02634 4.38936,-1.02636 2.82432,2e-5 4.9644,0.86625 6.42027,2.59868 1.47037,1.73247 2.20557,4.25107 2.2056,7.55582"
         style="font-variant:normal;font-weight:bold;font-stretch:normal;stroke:none;font-family:Bitstream Vera Sans;-inkscape-font-specification:Bitstream Vera Sans Bold;fill:#000000;fill-opacity:1"
         id="path3789" />
      <path
         d="m 378.73373,244.83864 0,-13.10259 7.86155,0 0,33.97937 -7.86155,0 0,-3.53769 c -1.07734,1.44128 -2.26385,2.49677 -3.55953,3.16645 -1.29572,0.66969 -2.79524,1.00453 -4.49856,1.00454 -3.0136,-1e-5 -5.48853,-1.1938 -7.4248,-3.58138 -1.93627,-2.40213 -2.90441,-5.48852 -2.9044,-9.25916 -10e-6,-3.77062 0.96813,-6.84972 2.9044,-9.23732 1.93627,-2.40212 4.4112,-3.60319 7.4248,-3.60321 1.68876,2e-5 3.181,0.34214 4.47672,1.02636 1.31024,0.66972 2.50403,1.71792 3.58137,3.14463 m -5.15368,15.83229 c 1.6742,0 2.94806,-0.61145 3.82159,-1.83436 0.88804,-1.2229 1.33207,-2.99903 1.33209,-5.32839 -2e-5,-2.32933 -0.44405,-4.10546 -1.33209,-5.32838 -0.87353,-1.22289 -2.14739,-1.83435 -3.82159,-1.83437 -1.65968,2e-5 -2.93354,0.61148 -3.82159,1.83437 -0.87352,1.22292 -1.31027,2.99905 -1.31026,5.32838 -10e-6,2.32936 0.43674,4.10549 1.31026,5.32839 0.88805,1.22291 2.16191,1.83436 3.82159,1.83436"
         style="font-variant:normal;font-weight:bold;font-stretch:normal;stroke:none;font-family:Bitstream Vera Sans;-inkscape-font-specification:Bitstream Vera Sans Bold;fill:#000000;fill-opacity:1"
         id="path3791" />
      <path
         d="m 418.5656,253.42083 0,2.22744 -18.27811,0 c 0.18925,1.83437 0.85166,3.21014 1.98722,4.12731 1.13555,0.91719 2.72241,1.37578 4.76061,1.37578 1.64508,0 3.32658,-0.24021 5.0445,-0.72065 1.73243,-0.49498 3.50855,-1.23746 5.32838,-2.22744 l 0,6.02719 c -1.84894,0.69881 -3.69786,1.22291 -5.54676,1.57231 -1.84894,0.36396 -3.69786,0.54594 -5.54676,0.54595 -4.42578,-1e-5 -7.86884,-1.121 -10.32921,-3.363 -2.44582,-2.25655 -3.66872,-5.41573 -3.66872,-9.47754 0,-3.98899 1.20106,-7.12633 3.60321,-9.41202 2.41669,-2.28565 5.73601,-3.42849 9.95796,-3.42851 3.84341,2e-5 6.91524,1.15741 9.21549,3.47218 2.31476,2.31481 3.47216,5.40847 3.47219,9.281 m -8.03626,-2.59868 c -2e-5,-1.48494 -0.43677,-2.67873 -1.31026,-3.58137 -0.85896,-0.91717 -1.98724,-1.37576 -3.38483,-1.37578 -1.51409,2e-5 -2.74428,0.4295 -3.69056,1.28843 -0.94631,0.8444 -1.53593,2.06731 -1.76885,3.66872 l 10.1545,0"
         style="font-variant:normal;font-weight:bold;font-stretch:normal;stroke:none;font-family:Bitstream Vera Sans;-inkscape-font-specification:Bitstream Vera Sans Bold;fill:#000000;fill-opacity:1"
         id="path3793" />
      <path
         d="m 449.05095,250.82215 0,14.89327 -7.86155,0 0,-2.42397 0,-8.97528 c -2e-5,-2.11096 -0.051,-3.5668 -0.15286,-4.36753 -0.0874,-0.80069 -0.24752,-1.39031 -0.48043,-1.76884 -0.30575,-0.50953 -0.72066,-0.90261 -1.24475,-1.17924 -0.52412,-0.29115 -1.12102,-0.43673 -1.79069,-0.43675 -1.63055,2e-5 -2.9117,0.63331 -3.84342,1.89987 -0.93175,1.25205 -1.39762,2.99178 -1.39761,5.2192 l 0,12.03254 -7.81788,0 0,-24.45816 7.81788,0 0,3.58138 c 1.17922,-1.42671 2.43124,-2.47491 3.75607,-3.14463 1.32481,-0.68422 2.78793,-1.02634 4.38937,-1.02636 2.82431,2e-5 4.9644,0.86625 6.42027,2.59868 1.47037,1.73247 2.20557,4.25107 2.2056,7.55582"
         style="font-variant:normal;font-weight:bold;font-stretch:normal;stroke:none;font-family:Bitstream Vera Sans;-inkscape-font-specification:Bitstream Vera Sans Bold;fill:#000000;fill-opacity:1"
         id="path3795" />
      <path
         d="m 475.45267,242.02158 0,5.93984 c -1.67424,-0.69879 -3.29023,-1.22289 -4.84796,-1.57231 -1.55777,-0.34938 -3.02817,-0.52409 -4.4112,-0.52411 -1.48498,2e-5 -2.59142,0.18928 -3.31933,0.56778 -0.71337,0.36398 -1.07005,0.93176 -1.07004,1.70334 -1e-5,0.62603 0.26932,1.10646 0.80799,1.44128 0.55321,0.33486 1.53591,0.58236 2.94808,0.74248 l 1.37578,0.19654 c 4.00355,0.50956 6.69685,1.34667 8.07992,2.51133 1.38303,1.16469 2.07456,2.99177 2.07458,5.48125 -2e-5,2.60596 -0.96088,4.56407 -2.88257,5.87433 -1.92173,1.31026 -4.78974,1.96538 -8.60403,1.96539 -1.616,-1e-5 -3.29022,-0.13103 -5.02266,-0.39308 -1.7179,-0.2475 -3.48675,-0.62601 -5.30655,-1.13556 l 0,-5.93984 c 1.55775,0.75705 3.1519,1.32482 4.78245,1.70334 1.64509,0.37852 3.31203,0.56778 5.00082,0.56778 1.52862,0 2.67873,-0.2111 3.45035,-0.6333 0.77158,-0.42218 1.15737,-1.0482 1.15739,-1.87803 -2e-5,-0.6988 -0.26935,-1.21562 -0.80799,-1.55048 -0.52412,-0.34939 -1.57961,-0.61872 -3.16646,-0.80799 l -1.37577,-0.1747 c -3.47947,-0.43674 -5.91801,-1.24473 -7.31561,-2.42398 -1.39761,-1.17922 -2.09642,-2.9699 -2.09642,-5.37206 0,-2.59138 0.88806,-4.51309 2.6642,-5.76514 1.77612,-1.252 4.49854,-1.87801 8.16728,-1.87803 1.44127,2e-5 2.95534,0.10921 4.54223,0.32756 1.58684,0.2184 3.31202,0.56052 5.17552,1.02637"
         style="font-variant:normal;font-weight:bold;font-stretch:normal;stroke:none;font-family:Bitstream Vera Sans;-inkscape-font-specification:Bitstream Vera Sans Bold;fill:#000000;fill-opacity:1"
         id="path3797" />
      <path
         d="m 493.94915,254.70925 c -1.63056,1e-5 -2.86075,0.27662 -3.69056,0.82983 -0.81529,0.55323 -1.22292,1.3685 -1.22291,2.44582 -1e-5,0.98998 0.32755,1.76885 0.98269,2.33663 0.66968,0.55322 1.59414,0.82983 2.77338,0.82983 1.47039,0 2.70785,-0.5241 3.7124,-1.57231 1.00452,-1.06276 1.50678,-2.38758 1.5068,-3.97446 l 0,-0.89534 -4.0618,0 m 11.94519,-2.94808 0,13.95425 -7.88339,0 0,-3.62505 c -1.04823,1.48497 -2.22746,2.56957 -3.5377,3.25381 -1.31027,0.66969 -2.90442,1.00453 -4.78244,1.00454 -2.53318,-1e-5 -4.59319,-0.73521 -6.18006,-2.20561 -1.57231,-1.48495 -2.35846,-3.40666 -2.35846,-5.76513 0,-2.86801 0.98269,-4.9717 2.94808,-6.31108 1.97994,-1.33936 5.08088,-2.00905 9.30284,-2.00907 l 4.60774,0 0,-0.61145 c -2e-5,-1.23745 -0.48773,-2.14007 -1.46312,-2.70787 -0.97543,-0.58232 -2.49679,-0.87349 -4.56407,-0.87351 -1.67423,2e-5 -3.23198,0.16745 -4.67326,0.50227 -1.44129,0.33486 -2.78066,0.83713 -4.01812,1.5068 l 0,-5.96168 c 1.67421,-0.40761 3.35571,-0.71334 5.04449,-0.91718 1.68877,-0.21835 3.37755,-0.32754 5.06634,-0.32756 4.41118,2e-5 7.5922,0.87353 9.54305,2.62051 1.96536,1.73248 2.94805,4.55681 2.94808,8.47301"
         style="font-variant:normal;font-weight:bold;font-stretch:normal;stroke:none;font-family:Bitstream Vera Sans;-inkscape-font-specification:Bitstream Vera Sans Bold;fill:#000000;fill-opacity:1"
         id="path3799" />
      <path
         d="m 521.74847,234.31289 0,6.94437 8.05809,0 0,5.59044 -8.05809,0 0,10.37288 c -2e-5,1.13556 0.22564,1.90716 0.67696,2.31479 0.4513,0.39308 1.34664,0.58962 2.68603,0.58962 l 4.01813,0 0,5.59043 -6.70416,0 c -3.08639,0 -5.27744,-0.64057 -6.57313,-1.92171 -1.28114,-1.2957 -1.92171,-3.48674 -1.92171,-6.57313 l 0,-10.37288 -3.8871,0 0,-5.59044 3.8871,0 0,-6.94437 7.81788,0"
         style="font-variant:normal;font-weight:bold;font-stretch:normal;stroke:none;font-family:Bitstream Vera Sans;-inkscape-font-specification:Bitstream Vera Sans Bold;fill:#000000;fill-opacity:1"
         id="path3801" />
      <path
         d="m 534.61084,241.25726 7.81788,0 0,24.45816 -7.81788,0 0,-24.45816 m 0,-9.52121 7.81788,0 0,6.37659 -7.81788,0 0,-6.37659"
         style="font-variant:normal;font-weight:bold;font-stretch:normal;stroke:none;font-family:Bitstream Vera Sans;-inkscape-font-specification:Bitstream Vera Sans Bold;fill:#000000;fill-opacity:1"
         id="path3803" />
      <path
         d="m 561.62399,246.25808 c -1.73246,2e-5 -3.05728,0.62603 -3.97445,1.87804 -0.90263,1.23748 -1.35394,3.02817 -1.35393,5.37206 -10e-6,2.34392 0.4513,4.14188 1.35393,5.3939 0.91717,1.23747 2.24199,1.8562 3.97445,1.8562 1.70332,0 3.0063,-0.61873 3.90894,-1.8562 0.9026,-1.25202 1.35392,-3.04998 1.35394,-5.3939 -2e-5,-2.34389 -0.45134,-4.13458 -1.35394,-5.37206 -0.90264,-1.25201 -2.20562,-1.87802 -3.90894,-1.87804 m 0,-5.59043 c 4.20737,2e-5 7.49029,1.13558 9.84878,3.40667 2.373,2.27113 3.55951,5.41575 3.55954,9.43386 -3e-5,4.01814 -1.18654,7.16275 -3.55954,9.43386 -2.35849,2.27112 -5.64141,3.40667 -9.84878,3.40668 -4.22195,-1e-5 -7.52671,-1.13556 -9.91429,-3.40668 -2.37302,-2.27111 -3.55953,-5.41572 -3.55953,-9.43386 0,-4.01811 1.18651,-7.16273 3.55953,-9.43386 2.38758,-2.27109 5.69234,-3.40665 9.91429,-3.40667"
         style="font-variant:normal;font-weight:bold;font-stretch:normal;stroke:none;font-family:Bitstream Vera Sans;-inkscape-font-specification:Bitstream Vera Sans Bold;fill:#000000;fill-opacity:1"
         id="path3805" />
      <path
         d="m 605.32112,250.82215 0,14.89327 -7.86155,0 0,-2.42397 0,-8.97528 c -2e-5,-2.11096 -0.051,-3.5668 -0.15286,-4.36753 -0.0874,-0.80069 -0.24752,-1.39031 -0.48043,-1.76884 -0.30575,-0.50953 -0.72066,-0.90261 -1.24475,-1.17924 -0.52412,-0.29115 -1.12101,-0.43673 -1.79068,-0.43675 -1.63056,2e-5 -2.9117,0.63331 -3.84343,1.89987 -0.93175,1.25205 -1.39762,2.99178 -1.39761,5.2192 l 0,12.03254 -7.81787,0 0,-24.45816 7.81787,0 0,3.58138 c 1.17922,-1.42671 2.43125,-2.47491 3.75608,-3.14463 1.3248,-0.68422 2.78792,-1.02634 4.38936,-1.02636 2.82432,2e-5 4.9644,0.86625 6.42027,2.59868 1.47037,1.73247 2.20557,4.25107 2.2056,7.55582"
         style="font-variant:normal;font-weight:bold;font-stretch:normal;stroke:none;font-family:Bitstream Vera Sans;-inkscape-font-specification:Bitstream Vera Sans Bold;fill:#000000;fill-opacity:1"
         id="path3807" />
    </g>
    <path
       style="fill:#000000;fill-opacity:1;stroke:none;filter:url(#filter3756)"
       d="M 19.516901,127.92207 233.6644,240.18269 534.49366,128.3523 19.516901,127.92207 z"
       id="rect3743-1"
       sodipodi:nodetypes="cccc" />
    <path
       style="fill:url(#linearGradient3752);fill-opacity:1;stroke:#cac5ff;stroke-width:3;stroke-miterlimit:4;stroke-opacity:1;stroke-dasharray:none"
       d="M 23.071431,121.45425 237.21893,233.71487 538.04819,121.88448 23.071431,121.45425 z"
       id="rect3743"
       sodipodi:nodetypes="cccc" />
    <path
       style="fill:#000000;fill-opacity:1;stroke:none;filter:url(#filter3714);opacity:0.84756098"
       d="m 323.18124,395.9683 c 0.65569,52.3756 -37.84129,75.62503 -77.04498,75.62503 -39.20369,0 -75.01119,-25.22399 -74.42218,-75.62503 0.57368,-49.0898 66.91717,-103.26536 74.64718,-153.21495 8.38569,49.25879 76.16427,100.83935 76.81998,153.21495 z"
       id="path3740-0"
       sodipodi:nodetypes="czzcz" />
    <path
       style="fill:#4040ff;fill-opacity:1;stroke:#6a62ff;stroke-opacity:1;stroke-width:3;stroke-miterlimit:4;stroke-dasharray:none;opacity:0.7"
       d="m 314.4005,387.60355 c 0.65569,52.3756 -37.84129,75.62503 -77.04498,75.62503 -39.20369,0 -75.01119,-25.22399 -74.42218,-75.62503 0.57368,-49.0898 66.91717,-103.26536 74.64718,-153.21495 8.38569,49.25879 76.16427,100.83935 76.81998,153.21495 z"
       id="path3740"
       sodipodi:nodetypes="czzcz" />
    <path
       style="opacity:0.50000000000000000;fill:#4d4dff;fill-opacity:1;stroke:none;filter:url(#filter3768)"
       d="m 230.61778,253.13233 c 16.41201,39.00655 83.95701,107.94402 58.13416,130.93668 -25.82284,22.99267 -27.69679,-62.00056 -58.13416,-130.93668 z"
       id="path3726-9"
       sodipodi:nodetypes="czc" />
    <rect
       style="fill:none;stroke:#170b57;stroke-width:3.99999952;stroke-linecap:butt;stroke-linejoin:miter;stroke-miterlimit:4;stroke-opacity:1;stroke-dasharray:none;stroke-dashoffset:0"
       id="rect2384-1"
       width="596"
       height="396"
       x="20.571432"
       y="122.21931" />
    <path
       transform="matrix(1.4782353,0.02749788,-1.2978581,1.4023397,280.97447,43.973414)"
       style="fill:#6969ff;fill-opacity:1;stroke:none;filter:url(#filter3648)"
       d="m 248.77769,279.29263 c -4.80348,21.51101 -34.49956,12.37981 -30.46947,-12.60725 4.03009,-24.98706 35.27295,-8.90377 30.46947,12.60725 z"
       id="path2906-2"
       sodipodi:nodetypes="czz" />
    <path
       style="fill:#ffffff;fill-opacity:1;stroke:none;filter:url(#filter3764)"
       d="m 285.14109,435.82157 c -8.08577,8.31259 -19.32917,14.92026 -25.11287,14.75866 -5.78367,-0.16161 -3.91748,-7.03131 4.16827,-15.34389 8.08576,-8.31258 19.32918,-14.92026 25.11288,-14.75866 5.78367,0.16161 3.91747,7.03129 -4.16828,15.34389 z"
       id="path2906"
       sodipodi:nodetypes="csssz" />
    <path
       style="fill:#6969ff;fill-opacity:1;stroke:none;filter:url(#filter3636)"
       d="m 235.08052,261.92777 c -16.41201,39.00655 -83.95701,107.94402 -58.13416,130.93668 25.82284,22.99267 46.48874,-62.00057 58.13416,-130.93668 z"
       id="path3726"
       sodipodi:nodetypes="czc" />
    <path
       style="fill:#ffffff;fill-opacity:1;stroke:none;filter:url(#filter3760)"
       d="m 209.39678,345.18859 c -5.30616,16.56109 -9.77232,32.73348 -18.58559,36.78443 -8.81322,4.05089 -11.65632,-6.0906 -6.35017,-22.65166 5.30616,-16.56108 16.7522,-33.27042 25.56548,-37.32135 8.81322,-4.0509 4.67641,6.62748 -0.62972,23.18858 z"
       id="path2906-20"
       sodipodi:nodetypes="csssz" />
    <g
       transform="matrix(0.99704499,0,0,1.0029638,-0.00622205,0.12473418)"
       style="font-size:44.72349547999999686px;font-style:normal;font-weight:normal;fill:#000000;fill-opacity:1;stroke:none;font-family:Bitstream Vera Sans;filter:url(#filter3867)"
       id="text3772-4">
      <path
         d="m 292.82444,263.92474 c -1.54322,0.80071 -3.15193,1.40489 -4.82612,1.81252 -1.67424,0.40764 -3.42125,0.61145 -5.24104,0.61146 -5.43031,-1e-5 -9.73232,-1.51408 -12.90604,-4.54223 -3.17375,-3.04271 -4.76061,-7.16274 -4.76061,-12.36011 0,-5.2119 1.58686,-9.33193 4.76061,-12.36011 3.17372,-3.04268 7.47573,-4.56403 12.90604,-4.56407 1.81979,4e-5 3.5668,0.20386 5.24104,0.61146 1.67419,0.40767 3.2829,1.01184 4.82612,1.81252 l 0,6.74783 c -1.55778,-1.06274 -3.0937,-1.84161 -4.60775,-2.33662 -1.5141,-0.49496 -3.10824,-0.74246 -4.78244,-0.74248 -2.99905,2e-5 -5.35752,0.96088 -7.0754,2.88257 -1.7179,1.92173 -2.57685,4.57136 -2.57684,7.9489 -1e-5,3.36301 0.85894,6.00536 2.57684,7.92706 1.71788,1.92172 4.07635,2.88258 7.0754,2.88257 1.6742,10e-6 3.26834,-0.24749 4.78244,-0.74248 1.51405,-0.49498 3.04997,-1.27385 4.60775,-2.33663 l 0,6.74784"
         style="font-variant:normal;font-weight:bold;font-stretch:normal;fill:#000000;fill-opacity:1;stroke:none;font-family:Bitstream Vera Sans;-inkscape-font-specification:Bitstream Vera Sans Bold"
         id="path3785-1" />
      <path
         d="m 311.10255,246.25808 c -1.73247,2e-5 -3.05728,0.62603 -3.97445,1.87804 -0.90264,1.23748 -1.35395,3.02817 -1.35394,5.37206 -10e-6,2.34392 0.4513,4.14188 1.35394,5.3939 0.91717,1.23747 2.24198,1.8562 3.97445,1.8562 1.70332,0 3.00629,-0.61873 3.90894,-1.8562 0.9026,-1.25202 1.35391,-3.04998 1.35393,-5.3939 -2e-5,-2.34389 -0.45133,-4.13458 -1.35393,-5.37206 -0.90265,-1.25201 -2.20562,-1.87802 -3.90894,-1.87804 m 0,-5.59043 c 4.20736,2e-5 7.49029,1.13558 9.84878,3.40667 2.37299,2.27113 3.5595,5.41575 3.55953,9.43386 -3e-5,4.01814 -1.18654,7.16275 -3.55953,9.43386 -2.35849,2.27112 -5.64142,3.40667 -9.84878,3.40668 -4.22196,-1e-5 -7.52672,-1.13556 -9.91429,-3.40668 -2.37303,-2.27111 -3.55954,-5.41572 -3.55954,-9.43386 0,-4.01811 1.18651,-7.16273 3.55954,-9.43386 2.38757,-2.27109 5.69233,-3.40665 9.91429,-3.40667"
         style="font-variant:normal;font-weight:bold;font-stretch:normal;fill:#000000;fill-opacity:1;stroke:none;font-family:Bitstream Vera Sans;-inkscape-font-specification:Bitstream Vera Sans Bold"
         id="path3787-8" />
      <path
         d="m 354.79967,250.82215 0,14.89327 -7.86155,0 0,-2.42397 0,-8.97528 c -2e-5,-2.11096 -0.051,-3.5668 -0.15286,-4.36753 -0.0874,-0.80069 -0.24752,-1.39031 -0.48043,-1.76884 -0.30575,-0.50953 -0.72066,-0.90261 -1.24475,-1.17924 -0.52412,-0.29115 -1.12101,-0.43673 -1.79068,-0.43675 -1.63056,2e-5 -2.9117,0.63331 -3.84343,1.89987 -0.93175,1.25205 -1.39762,2.99178 -1.39761,5.2192 l 0,12.03254 -7.81787,0 0,-24.45816 7.81787,0 0,3.58138 c 1.17922,-1.42671 2.43125,-2.47491 3.75608,-3.14463 1.3248,-0.68422 2.78792,-1.02634 4.38936,-1.02636 2.82432,2e-5 4.9644,0.86625 6.42027,2.59868 1.47037,1.73247 2.20557,4.25107 2.2056,7.55582"
         style="font-variant:normal;font-weight:bold;font-stretch:normal;fill:#000000;fill-opacity:1;stroke:none;font-family:Bitstream Vera Sans;-inkscape-font-specification:Bitstream Vera Sans Bold"
         id="path3789-9" />
      <path
         d="m 378.73373,244.83864 0,-13.10259 7.86155,0 0,33.97937 -7.86155,0 0,-3.53769 c -1.07734,1.44128 -2.26385,2.49677 -3.55953,3.16645 -1.29572,0.66969 -2.79524,1.00453 -4.49856,1.00454 -3.0136,-1e-5 -5.48853,-1.1938 -7.4248,-3.58138 -1.93627,-2.40213 -2.90441,-5.48852 -2.9044,-9.25916 -10e-6,-3.77062 0.96813,-6.84972 2.9044,-9.23732 1.93627,-2.40212 4.4112,-3.60319 7.4248,-3.60321 1.68876,2e-5 3.181,0.34214 4.47672,1.02636 1.31024,0.66972 2.50403,1.71792 3.58137,3.14463 m -5.15368,15.83229 c 1.6742,0 2.94806,-0.61145 3.82159,-1.83436 0.88804,-1.2229 1.33207,-2.99903 1.33209,-5.32839 -2e-5,-2.32933 -0.44405,-4.10546 -1.33209,-5.32838 -0.87353,-1.22289 -2.14739,-1.83435 -3.82159,-1.83437 -1.65968,2e-5 -2.93354,0.61148 -3.82159,1.83437 -0.87352,1.22292 -1.31027,2.99905 -1.31026,5.32838 -10e-6,2.32936 0.43674,4.10549 1.31026,5.32839 0.88805,1.22291 2.16191,1.83436 3.82159,1.83436"
         style="font-variant:normal;font-weight:bold;font-stretch:normal;fill:#000000;fill-opacity:1;stroke:none;font-family:Bitstream Vera Sans;-inkscape-font-specification:Bitstream Vera Sans Bold"
         id="path3791-0" />
      <path
         d="m 418.5656,253.42083 0,2.22744 -18.27811,0 c 0.18925,1.83437 0.85166,3.21014 1.98722,4.12731 1.13555,0.91719 2.72241,1.37578 4.76061,1.37578 1.64508,0 3.32658,-0.24021 5.0445,-0.72065 1.73243,-0.49498 3.50855,-1.23746 5.32838,-2.22744 l 0,6.02719 c -1.84894,0.69881 -3.69786,1.22291 -5.54676,1.57231 -1.84894,0.36396 -3.69786,0.54594 -5.54676,0.54595 -4.42578,-1e-5 -7.86884,-1.121 -10.32921,-3.363 -2.44582,-2.25655 -3.66872,-5.41573 -3.66872,-9.47754 0,-3.98899 1.20106,-7.12633 3.60321,-9.41202 2.41669,-2.28565 5.73601,-3.42849 9.95796,-3.42851 3.84341,2e-5 6.91524,1.15741 9.21549,3.47218 2.31476,2.31481 3.47216,5.40847 3.47219,9.281 m -8.03626,-2.59868 c -2e-5,-1.48494 -0.43677,-2.67873 -1.31026,-3.58137 -0.85896,-0.91717 -1.98724,-1.37576 -3.38483,-1.37578 -1.51409,2e-5 -2.74428,0.4295 -3.69056,1.28843 -0.94631,0.8444 -1.53593,2.06731 -1.76885,3.66872 l 10.1545,0"
         style="font-variant:normal;font-weight:bold;font-stretch:normal;fill:#000000;fill-opacity:1;stroke:none;font-family:Bitstream Vera Sans;-inkscape-font-specification:Bitstream Vera Sans Bold"
         id="path3793-4" />
      <path
         d="m 449.05095,250.82215 0,14.89327 -7.86155,0 0,-2.42397 0,-8.97528 c -2e-5,-2.11096 -0.051,-3.5668 -0.15286,-4.36753 -0.0874,-0.80069 -0.24752,-1.39031 -0.48043,-1.76884 -0.30575,-0.50953 -0.72066,-0.90261 -1.24475,-1.17924 -0.52412,-0.29115 -1.12102,-0.43673 -1.79069,-0.43675 -1.63055,2e-5 -2.9117,0.63331 -3.84342,1.89987 -0.93175,1.25205 -1.39762,2.99178 -1.39761,5.2192 l 0,12.03254 -7.81788,0 0,-24.45816 7.81788,0 0,3.58138 c 1.17922,-1.42671 2.43124,-2.47491 3.75607,-3.14463 1.32481,-0.68422 2.78793,-1.02634 4.38937,-1.02636 2.82431,2e-5 4.9644,0.86625 6.42027,2.59868 1.47037,1.73247 2.20557,4.25107 2.2056,7.55582"
         style="font-variant:normal;font-weight:bold;font-stretch:normal;fill:#000000;fill-opacity:1;stroke:none;font-family:Bitstream Vera Sans;-inkscape-font-specification:Bitstream Vera Sans Bold"
         id="path3795-4" />
      <path
         d="m 475.45267,242.02158 0,5.93984 c -1.67424,-0.69879 -3.29023,-1.22289 -4.84796,-1.57231 -1.55777,-0.34938 -3.02817,-0.52409 -4.4112,-0.52411 -1.48498,2e-5 -2.59142,0.18928 -3.31933,0.56778 -0.71337,0.36398 -1.07005,0.93176 -1.07004,1.70334 -1e-5,0.62603 0.26932,1.10646 0.80799,1.44128 0.55321,0.33486 1.53591,0.58236 2.94808,0.74248 l 1.37578,0.19654 c 4.00355,0.50956 6.69685,1.34667 8.07992,2.51133 1.38303,1.16469 2.07456,2.99177 2.07458,5.48125 -2e-5,2.60596 -0.96088,4.56407 -2.88257,5.87433 -1.92173,1.31026 -4.78974,1.96538 -8.60403,1.96539 -1.616,-1e-5 -3.29022,-0.13103 -5.02266,-0.39308 -1.7179,-0.2475 -3.48675,-0.62601 -5.30655,-1.13556 l 0,-5.93984 c 1.55775,0.75705 3.1519,1.32482 4.78245,1.70334 1.64509,0.37852 3.31203,0.56778 5.00082,0.56778 1.52862,0 2.67873,-0.2111 3.45035,-0.6333 0.77158,-0.42218 1.15737,-1.0482 1.15739,-1.87803 -2e-5,-0.6988 -0.26935,-1.21562 -0.80799,-1.55048 -0.52412,-0.34939 -1.57961,-0.61872 -3.16646,-0.80799 l -1.37577,-0.1747 c -3.47947,-0.43674 -5.91801,-1.24473 -7.31561,-2.42398 -1.39761,-1.17922 -2.09642,-2.9699 -2.09642,-5.37206 0,-2.59138 0.88806,-4.51309 2.6642,-5.76514 1.77612,-1.252 4.49854,-1.87801 8.16728,-1.87803 1.44127,2e-5 2.95534,0.10921 4.54223,0.32756 1.58684,0.2184 3.31202,0.56052 5.17552,1.02637"
         style="font-variant:normal;font-weight:bold;font-stretch:normal;fill:#000000;fill-opacity:1;stroke:none;font-family:Bitstream Vera Sans;-inkscape-font-specification:Bitstream Vera Sans Bold"
         id="path3797-9" />
      <path
         d="m 493.94915,254.70925 c -1.63056,1e-5 -2.86075,0.27662 -3.69056,0.82983 -0.81529,0.55323 -1.22292,1.3685 -1.22291,2.44582 -1e-5,0.98998 0.32755,1.76885 0.98269,2.33663 0.66968,0.55322 1.59414,0.82983 2.77338,0.82983 1.47039,0 2.70785,-0.5241 3.7124,-1.57231 1.00452,-1.06276 1.50678,-2.38758 1.5068,-3.97446 l 0,-0.89534 -4.0618,0 m 11.94519,-2.94808 0,13.95425 -7.88339,0 0,-3.62505 c -1.04823,1.48497 -2.22746,2.56957 -3.5377,3.25381 -1.31027,0.66969 -2.90442,1.00453 -4.78244,1.00454 -2.53318,-1e-5 -4.59319,-0.73521 -6.18006,-2.20561 -1.57231,-1.48495 -2.35846,-3.40666 -2.35846,-5.76513 0,-2.86801 0.98269,-4.9717 2.94808,-6.31108 1.97994,-1.33936 5.08088,-2.00905 9.30284,-2.00907 l 4.60774,0 0,-0.61145 c -2e-5,-1.23745 -0.48773,-2.14007 -1.46312,-2.70787 -0.97543,-0.58232 -2.49679,-0.87349 -4.56407,-0.87351 -1.67423,2e-5 -3.23198,0.16745 -4.67326,0.50227 -1.44129,0.33486 -2.78066,0.83713 -4.01812,1.5068 l 0,-5.96168 c 1.67421,-0.40761 3.35571,-0.71334 5.04449,-0.91718 1.68877,-0.21835 3.37755,-0.32754 5.06634,-0.32756 4.41118,2e-5 7.5922,0.87353 9.54305,2.62051 1.96536,1.73248 2.94805,4.55681 2.94808,8.47301"
         style="font-variant:normal;font-weight:bold;font-stretch:normal;fill:#000000;fill-opacity:1;stroke:none;font-family:Bitstream Vera Sans;-inkscape-font-specification:Bitstream Vera Sans Bold"
         id="path3799-9" />
      <path
         d="m 521.74847,234.31289 0,6.94437 8.05809,0 0,5.59044 -8.05809,0 0,10.37288 c -2e-5,1.13556 0.22564,1.90716 0.67696,2.31479 0.4513,0.39308 1.34664,0.58962 2.68603,0.58962 l 4.01813,0 0,5.59043 -6.70416,0 c -3.08639,0 -5.27744,-0.64057 -6.57313,-1.92171 -1.28114,-1.2957 -1.92171,-3.48674 -1.92171,-6.57313 l 0,-10.37288 -3.8871,0 0,-5.59044 3.8871,0 0,-6.94437 7.81788,0"
         style="font-variant:normal;font-weight:bold;font-stretch:normal;fill:#000000;fill-opacity:1;stroke:none;font-family:Bitstream Vera Sans;-inkscape-font-specification:Bitstream Vera Sans Bold"
         id="path3801-4" />
      <path
         d="m 534.61084,241.25726 7.81788,0 0,24.45816 -7.81788,0 0,-24.45816 m 0,-9.52121 7.81788,0 0,6.37659 -7.81788,0 0,-6.37659"
         style="font-variant:normal;font-weight:bold;font-stretch:normal;fill:#000000;fill-opacity:1;stroke:none;font-family:Bitstream Vera Sans;-inkscape-font-specification:Bitstream Vera Sans Bold"
         id="path3803-4" />
      <path
         d="m 561.62399,246.25808 c -1.73246,2e-5 -3.05728,0.62603 -3.97445,1.87804 -0.90263,1.23748 -1.35394,3.02817 -1.35393,5.37206 -10e-6,2.34392 0.4513,4.14188 1.35393,5.3939 0.91717,1.23747 2.24199,1.8562 3.97445,1.8562 1.70332,0 3.0063,-0.61873 3.90894,-1.8562 0.9026,-1.25202 1.35392,-3.04998 1.35394,-5.3939 -2e-5,-2.34389 -0.45134,-4.13458 -1.35394,-5.37206 -0.90264,-1.25201 -2.20562,-1.87802 -3.90894,-1.87804 m 0,-5.59043 c 4.20737,2e-5 7.49029,1.13558 9.84878,3.40667 2.373,2.27113 3.55951,5.41575 3.55954,9.43386 -3e-5,4.01814 -1.18654,7.16275 -3.55954,9.43386 -2.35849,2.27112 -5.64141,3.40667 -9.84878,3.40668 -4.22195,-1e-5 -7.52671,-1.13556 -9.91429,-3.40668 -2.37302,-2.27111 -3.55953,-5.41572 -3.55953,-9.43386 0,-4.01811 1.18651,-7.16273 3.55953,-9.43386 2.38758,-2.27109 5.69234,-3.40665 9.91429,-3.40667"
         style="font-variant:normal;font-weight:bold;font-stretch:normal;fill:#000000;fill-opacity:1;stroke:none;font-family:Bitstream Vera Sans;-inkscape-font-specification:Bitstream Vera Sans Bold"
         id="path3805-8" />
      <path
         d="m 605.32112,250.82215 0,14.89327 -7.86155,0 0,-2.42397 0,-8.97528 c -2e-5,-2.11096 -0.051,-3.5668 -0.15286,-4.36753 -0.0874,-0.80069 -0.24752,-1.39031 -0.48043,-1.76884 -0.30575,-0.50953 -0.72066,-0.90261 -1.24475,-1.17924 -0.52412,-0.29115 -1.12101,-0.43673 -1.79068,-0.43675 -1.63056,2e-5 -2.9117,0.63331 -3.84343,1.89987 -0.93175,1.25205 -1.39762,2.99178 -1.39761,5.2192 l 0,12.03254 -7.81787,0 0,-24.45816 7.81787,0 0,3.58138 c 1.17922,-1.42671 2.43125,-2.47491 3.75608,-3.14463 1.3248,-0.68422 2.78792,-1.02634 4.38936,-1.02636 2.82432,2e-5 4.9644,0.86625 6.42027,2.59868 1.47037,1.73247 2.20557,4.25107 2.2056,7.55582"
         style="font-variant:normal;font-weight:bold;font-stretch:normal;fill:#000000;fill-opacity:1;stroke:none;font-family:Bitstream Vera Sans;-inkscape-font-specification:Bitstream Vera Sans Bold"
         id="path3807-1" />
    </g>
  </g>
</svg>
