<?xml version="1.0" encoding="UTF-8" standalone="no"?>
<!-- Created with Inkscape (http://www.inkscape.org/) -->
<svg
   xmlns:dc="http://purl.org/dc/elements/1.1/"
   xmlns:cc="http://creativecommons.org/ns#"
   xmlns:rdf="http://www.w3.org/1999/02/22-rdf-syntax-ns#"
   xmlns:svg="http://www.w3.org/2000/svg"
   xmlns="http://www.w3.org/2000/svg"
   xmlns:xlink="http://www.w3.org/1999/xlink"
   xmlns:sodipodi="http://sodipodi.sourceforge.net/DTD/sodipodi-0.dtd"
   xmlns:inkscape="http://www.inkscape.org/namespaces/inkscape"
   width="600"
   height="400"
   id="svg2"
   sodipodi:version="0.32"
   inkscape:version="0.46"
   version="1.0"
   sodipodi:docname="condensation.svg"
   inkscape:output_extension="org.inkscape.output.svg.inkscape">
  <defs
     id="defs4">
    <linearGradient
       id="linearGradient2394">
      <stop
         style="stop-color:#518eff;stop-opacity:1;"
         offset="0"
         id="stop2396" />
      <stop
         style="stop-color:#518eff;stop-opacity:0;"
         offset="1"
         id="stop2398" />
    </linearGradient>
    <inkscape:perspective
       sodipodi:type="inkscape:persp3d"
       inkscape:vp_x="0 : 526.18109 : 1"
       inkscape:vp_y="0 : 1000 : 0"
       inkscape:vp_z="744.09448 : 526.18109 : 1"
       inkscape:persp3d-origin="372.04724 : 350.78739 : 1"
       id="perspective10" />
    <inkscape:perspective
       id="perspective2507"
       inkscape:persp3d-origin="372.04724 : 350.78739 : 1"
       inkscape:vp_z="744.09448 : 526.18109 : 1"
       inkscape:vp_y="0 : 1000 : 0"
       inkscape:vp_x="0 : 526.18109 : 1"
       sodipodi:type="inkscape:persp3d" />
    <linearGradient
       inkscape:collect="always"
       xlink:href="#linearGradient2394"
       id="linearGradient2400"
       x1="371.42856"
       y1="779.20099"
       x2="375.71429"
       y2="-49.370457"
       gradientUnits="userSpaceOnUse"
       gradientTransform="matrix(0.7843688,0,0,0.4850879,32.2767,127.95783)" />
    <filter
       inkscape:collect="always"
       id="filter3675">
      <feGaussianBlur
         inkscape:collect="always"
         stdDeviation="3.1458046"
         id="feGaussianBlur3677" />
    </filter>
    <filter
       inkscape:collect="always"
       id="filter3679">
      <feGaussianBlur
         inkscape:collect="always"
         stdDeviation="3.1458046"
         id="feGaussianBlur3681" />
    </filter>
    <filter
       inkscape:collect="always"
       id="filter3687">
      <feGaussianBlur
         inkscape:collect="always"
         stdDeviation="3.1458046"
         id="feGaussianBlur3689" />
    </filter>
    <filter
       inkscape:collect="always"
       id="filter3691">
      <feGaussianBlur
         inkscape:collect="always"
         stdDeviation="3.1458046"
         id="feGaussianBlur3693" />
    </filter>
    <filter
       inkscape:collect="always"
       id="filter3715">
      <feGaussianBlur
         inkscape:collect="always"
         stdDeviation="0.78330774"
         id="feGaussianBlur3717" />
    </filter>
  </defs>
  <sodipodi:namedview
     id="base"
     pagecolor="#ffffff"
     bordercolor="#666666"
     borderopacity="1.0"
     inkscape:pageopacity="0.0"
     inkscape:pageshadow="2"
     inkscape:zoom="1.3063798"
     inkscape:cx="300"
     inkscape:cy="200"
     inkscape:document-units="px"
     inkscape:current-layer="layer1"
     showgrid="false"
     inkscape:window-width="1668"
     inkscape:window-height="962"
     inkscape:window-x="1680"
     inkscape:window-y="33" />
  <metadata
     id="metadata7">
    <rdf:RDF>
      <cc:Work
         rdf:about="">
        <dc:format>image/svg+xml</dc:format>
        <dc:type
           rdf:resource="http://purl.org/dc/dcmitype/StillImage" />
      </cc:Work>
    </rdf:RDF>
  </metadata>
  <g
     inkscape:label="Ebene 1"
     inkscape:groupmode="layer"
     id="layer1"
     transform="translate(-18.571431,-120.21934)">
    <rect
       style="opacity:1;fill:url(#linearGradient2400);fill-opacity:1;stroke:#170b57;stroke-width:5;stroke-linecap:butt;stroke-linejoin:miter;stroke-miterlimit:4;stroke-dasharray:none;stroke-dashoffset:0;stroke-opacity:1"
       id="rect2384"
       width="595"
       height="395"
       x="21.07143"
       y="122.71934" />
    <path
       style="fill:#ffffff;fill-opacity:1;filter:url(#filter3691)"
       d="M 311.69657,474.99536 C 255.32785,472.84259 201.44703,436.02821 181.74986,382.6838 C 160.09344,327.97598 176.60236,260.89186 221.54913,222.79845 C 243.19608,201.77019 274.49356,194.71365 295.5724,173.14611 C 303.41191,164.44605 303.62705,149.21233 306.95396,140.98861 C 323.49613,161.32168 341.12406,182.91591 367.13525,191.0777 C 432.73905,215.90038 476.17633,290.19048 462.13026,359.54495 C 452.86807,411.09348 412.31209,454.58489 362.13514,468.85739 C 345.83118,473.87152 328.71641,475.76336 311.69657,474.99536 z"
       id="path2404"
       sodipodi:nodetypes="ccccccccc" />
    <path
       id="path2527"
       d="M 311.46874,476.08459 C 289.37075,474.8908 268.38312,469.17352 249.00402,459.06844 C 235.04095,451.78753 224.37811,443.81128 212.65396,431.87706 C 201.27392,420.29314 193.68658,409.66096 186.65562,395.44548 C 178.47854,378.91272 174.29964,364.34737 172.3546,345.5999 C 171.91034,341.31789 171.90914,322.34408 172.35286,318.21637 C 174.32464,299.87398 178.90331,283.91249 186.77825,267.92862 C 190.14659,261.09186 192.19053,257.46691 195.4943,252.47067 C 201.16539,243.89432 206.02736,238.00892 214.16432,229.87062 C 227.21613,216.81667 239.40981,208.15651 259.09933,197.95702 C 265.72432,194.52516 270.03279,192.16963 273.10657,190.29894 C 280.81643,185.60676 290.12113,178.94638 293.06454,176.01286 C 294.99507,174.08882 298.04601,169.64986 299.2932,166.95047 C 301.01509,163.22368 302.87628,156.84833 304.03034,150.72389 C 304.56478,147.88766 305.65868,140.92259 305.66257,140.33114 C 305.66332,140.21685 305.84355,140.16006 306.06307,140.20494 C 306.51142,140.29661 308.18627,142.20225 313.7875,148.99375 C 323.17649,160.37794 329.70113,167.61184 334.09737,171.51141 C 339.24956,176.08153 345.52489,180.56735 351.84998,184.20156 C 355.82984,186.48827 357.39023,187.1937 366.72314,190.9254 C 378.53157,195.64693 388.58367,200.90726 397.15268,206.84939 C 415.08305,219.2831 432.09976,237.3237 442.90197,255.35139 C 456.16715,277.48956 463.43653,300.2269 464.93715,324.27356 C 465.30214,330.12239 465.10221,342.18972 464.55451,347.36657 C 462.76769,364.25568 458.93314,378.0124 451.61023,393.805 C 446.93944,403.87799 446.08676,405.385 440.80416,412.90318 C 434.96615,421.21182 430.66469,426.3158 423.28605,433.68975 C 415.66897,441.30196 410.08566,445.94272 402.20033,451.21588 C 384.19659,463.25557 362.18482,471.68433 340.57888,474.81203 C 332.31075,476.00893 320.0166,476.54638 311.46874,476.08459 z M 351.72441,458.5395 C 360.72418,457.9971 362.78103,457.70636 368.63343,456.14941 C 375.43172,454.34084 380.61479,452.22082 386.57963,448.80896 C 391.20618,446.16263 392.54564,445.09949 393.36612,443.42246 L 394.05508,442.01429 L 393.60302,440.34422 C 393.35438,439.42567 392.96444,438.44383 392.73649,438.16232 C 392.35697,437.69362 392.2384,437.67782 391.33019,437.9748 C 390.78467,438.15321 389.65691,438.761 388.82405,439.32548 C 386.77026,440.71747 380.17348,444.03396 377.8454,444.84491 C 369.49251,447.75455 359.83556,449.16813 348.19043,449.18572 C 337.30072,449.20217 332.45481,448.69423 324.46645,446.69889 C 321.55559,445.9718 315.66377,443.15574 313.614,441.51182 C 311.68739,439.96666 310.91613,439.50255 309.98174,439.32601 C 308.11131,438.97265 304.65442,440.81519 303.7967,442.62268 C 303.39134,443.47694 303.38788,443.68062 303.74915,445.42751 C 303.9634,446.46354 304.32846,447.6008 304.56039,447.95477 C 305.09842,448.7759 309.90387,451.98101 312.84899,453.48304 C 317.86272,456.04006 326.85594,458.29928 333.80461,458.74739 C 337.37989,458.97794 346.1349,458.87638 351.72441,458.5395 z M 340.35103,423.36547 C 341.05363,422.83381 342.70742,421.43914 344.02611,420.26624 C 347.88995,416.82962 349.20695,415.83859 351.15596,414.90117 C 356.02042,412.56145 364.06471,411.60626 369.51677,412.72096 C 372.63057,413.35759 375.06646,414.41391 376.41691,415.71321 C 376.94994,416.22605 377.89926,417.66778 378.52652,418.91708 C 380.35059,422.55005 381.3489,424.07381 382.01443,424.24084 C 383.59099,424.63655 385.85855,422.96436 386.40837,421.00057 C 387.03303,418.76953 385.98419,415.91135 382.83876,411.27301 C 379.65741,406.58167 378.20614,405.49938 373.4287,404.25541 C 368.37852,402.94039 359.802,403.18112 354.23593,404.79412 C 349.73853,406.0974 347.24722,407.51107 341.3761,412.09126 C 336.65388,415.77517 334.14018,418.5539 333.77659,420.492 C 333.43612,422.30685 334.50428,424.14643 336.24266,424.73902 C 337.33509,425.11143 338.60465,424.68698 340.35103,423.36547 z M 284.85129,419.28518 C 292.60119,418.65586 300.8731,416.03686 311.84732,410.73781 C 316.28401,408.59551 331.77873,399.77549 345.16184,391.77427 C 355.68444,385.48324 359.35142,383.56868 363.58578,382.15503 C 366.83561,381.07007 366.90029,381.0597 370.40011,381.06277 L 373.93347,381.06587 L 376.91391,382.29383 C 378.7,383.0297 380.89363,384.19155 382.38799,385.19313 C 385.72259,387.42812 393.77903,394.63347 399.67053,400.64992 C 410.37868,411.58518 413.00929,414.10452 415.35995,415.67572 C 418.62868,417.86055 419.64392,418.16298 423.65286,418.14612 C 427.72011,418.12901 429.11056,417.79595 431.4234,416.28478 C 438.6315,411.57517 445.44306,401.19209 449.5649,388.63115 C 451.99017,381.24029 452.89014,376.6642 453.35415,369.36362 C 453.6746,364.32177 453.47905,361.15782 452.57958,356.83093 C 451.28019,350.58033 447.72891,344.38133 444.0179,341.88595 C 442.19323,340.65898 438.81978,339.49685 435.24319,338.86313 C 432.40302,338.35989 430.67503,338.5605 426.9354,339.82762 C 422.95987,341.17468 418.71675,343.64418 407.50037,351.13886 C 386.00151,365.50418 382.01891,367.79782 375.46158,369.59047 C 373.76154,370.05524 372.99328,370.12112 370.41393,370.02331 C 367.46632,369.91153 367.26861,369.86733 364.06924,368.60484 C 360.07773,367.02978 356.68077,365.00991 348.06424,359.08809 C 337.51822,351.8402 323.87307,343.22658 319.34817,340.9608 C 311.18311,336.87228 304.56096,334.70249 298.01327,333.97028 C 292.22775,333.3233 278.85275,334.69 273.10657,336.51533 C 270.1997,337.43872 263.93264,340.72981 259.6826,343.56479 C 251.56981,348.97642 248.97525,351.56042 244.52653,358.65912 C 241.6854,363.19263 240.18809,366.4818 238.80999,371.21674 C 237.05545,377.24503 236.70691,380.08905 237.00055,385.98113 C 237.26386,391.26464 237.62081,392.95197 239.45663,397.59074 C 242.49979,405.28031 244.65846,407.93103 251.72676,412.65781 C 258.02733,416.87119 263.53402,418.8082 270.58274,419.2905 C 274.74348,419.57519 281.31007,419.57274 284.85129,419.28518 z M 211.09827,257.49666 C 221.51761,255.92348 240.92462,245.87227 261.74935,231.26364 C 273.74459,222.84893 287.17875,210.29912 291.95871,203.04292 C 294.64327,198.96763 295.63157,195.83472 294.75526,194.17784 C 294.32453,193.36343 293.09255,192.54791 291.64918,192.12173 C 291.01253,191.93375 290.29949,191.56733 290.06464,191.30746 C 289.65879,190.85837 289.6814,190.79838 290.52098,190.09642 C 291.00682,189.69022 292.54004,188.77912 293.92815,188.07176 C 301.10152,184.41628 304.83378,181.49226 307.72763,177.26062 C 310.18706,173.66423 310.71905,171.79041 310.70124,166.78673 C 310.68301,161.66366 309.44386,152.63075 308.41536,150.12359 L 308.10717,149.37233 L 307.91465,150.50805 C 307.80877,151.13269 307.47262,153.12021 307.16766,154.92474 C 306.03142,161.64818 303.80948,167.62032 300.70683,172.29026 C 295.77619,179.71157 282.95302,189.32101 266.29224,198.07993 C 255.17406,203.92498 252.39415,205.43543 248.49926,207.74765 C 235.75732,215.31196 224.61674,223.92261 215.56331,233.20413 C 206.53804,242.45678 202.95696,248.01797 202.94717,252.7962 C 202.94174,255.44389 204.31303,257.07086 206.91991,257.50966 C 208.65693,257.80205 209.08446,257.80072 211.09827,257.49666 z"
       style="fill:#96c5e2;filter:url(#filter3687)" />
    <path
       style="fill:#0071b8;filter:url(#filter3715)"
       d="M 311.7299,476.01667 C 255.36118,473.8639 201.48036,437.04952 181.7832,383.70511 C 160.12678,328.99729 176.6357,261.91317 221.58246,223.81976 C 243.22941,202.7915 274.52689,195.73496 295.60574,174.16742 C 303.44524,165.46736 303.66039,150.23364 306.98729,142.00992 C 323.52947,162.34299 341.15739,183.93722 367.16859,192.09901 C 432.77238,216.92168 476.20967,291.21179 462.16359,360.56626 C 452.90141,412.11479 412.34543,455.6062 362.16847,469.87869 C 345.86451,474.89282 328.74975,476.78467 311.7299,476.01667 z M 351.98557,459.48116 C 365.78449,458.01833 393.61832,454.95693 393.13936,438.26653 C 380.49514,443.38412 365.61536,450.00319 350.57894,449.13243 C 335.7399,450.4588 320.88129,446.25739 308.45197,439.28016 C 293.07591,450.04847 321.70636,459.44224 331.80608,459.54025 C 338.5131,460.07279 345.27277,459.76655 351.98557,459.48116 z M 338.88384,425.28353 C 348.12362,415.31834 366.93502,407.01947 377.67238,418.77899 C 383.63633,434.09932 391.78106,414.98284 381.73439,409.3071 C 370.43939,398.47452 350.44161,402.94904 339.9054,413.12351 C 334.81262,415.34619 328.51919,427.17309 338.88384,425.28353 z M 285.11245,420.22684 C 314.43526,415.71118 337.13566,394.91024 363.46836,383.21821 C 379.18481,377.43337 390.395,394.37865 401.01655,402.98807 C 409.37013,414.94997 427.55747,427.81914 438.41828,410.87247 C 452.28558,392.82856 460.75685,365.14086 447.02598,344.65641 C 433.52896,330.1778 414.74882,345.96684 402.43021,354.28118 C 389.89663,360.95607 376.19,375.49602 361.06018,367.43727 C 340.12205,354.94687 320.93108,336.27726 295.66037,333.73735 C 270.65895,331.93688 244.89728,347.51206 237.93963,372.18048 C 232.31249,389.90338 240.6108,411.74171 259.16333,417.58963 C 267.42788,420.48358 276.45077,420.87219 285.11245,420.22684 z M 208.00061,270.41674 C 237.71408,261.34905 264.60804,243.67432 287.07267,222.39521 C 295.3384,212.97426 310.51645,200.52093 304.13098,187.95649 C 318.55252,181.75269 311.89696,151.67584 307.3308,150.81875 C 306.72036,167.73914 295.25758,181.41975 280.96119,189.26647 C 259.09393,202.79826 234.48912,212.81926 216.68743,232.07002 C 208.85872,240.76789 184.01671,263.06024 202.82566,270.92888 L 205.12014,270.82153 L 208.00061,270.41675 L 208.00061,270.41674 z"
       id="path2519" />
    <path
       id="path2517"
       d="M 311.72113,475.57978 C 281.79234,473.96347 253.18493,463.82785 229.94913,446.60795 C 215.13455,435.62898 202.15356,421.31583 192.58976,405.4146 C 182.90509,389.31243 176.42675,371.18099 173.80737,352.84683 C 172.66414,344.84485 172.53206,342.66977 172.53206,331.84504 C 172.53206,321.27811 172.65078,319.23308 173.69689,311.78061 C 176.58142,291.23125 184.81406,269.41343 196.08358,252.4523 C 201.89326,243.70848 206.74923,237.79492 214.41823,230.12451 C 226.98382,217.5566 239.99222,208.36867 259.60409,198.2094 C 266.23297,194.77553 270.53848,192.42147 273.61134,190.55086 C 281.5328,185.72864 289.95715,179.62375 293.31974,176.26875 C 299.75011,169.85287 303.24117,160.81419 305.638,144.37558 C 305.89702,142.59904 306.17759,141.07687 306.26149,140.99298 C 306.34538,140.90909 306.66804,141.17011 306.97851,141.57303 C 307.28898,141.97595 308.12079,142.93025 308.82698,143.69371 C 309.53318,144.45717 311.63536,146.95576 313.4985,149.24613 C 329.46725,168.8766 338.0242,176.82103 351.54603,184.57018 C 355.77638,186.99453 357.73648,187.88482 367.15981,191.66211 C 375.22078,194.89331 381.84814,198.0232 387.29757,201.17253 C 406.91287,212.50857 425.08688,229.55764 438.21398,248.93731 C 449.12996,265.05268 457.17217,283.54535 461.24007,301.88483 C 463.83431,313.58052 464.84412,324.0021 464.58331,336.38792 C 464.26801,351.36003 462.07866,364.01107 457.35482,378.15727 C 455.26597,384.41262 453.29769,389.17403 449.44855,397.28301 C 446.3953,403.71531 444.69679,406.59626 440.23976,412.9028 C 434.19968,421.44923 429.93495,426.53828 423.03233,433.43602 C 415.81333,440.64996 410.18178,445.29211 402.07414,450.7121 C 381.64053,464.37204 357.05045,473.02761 332.50264,475.20085 C 327.19626,475.67063 316.88502,475.85864 311.72113,475.57978 z M 337.51761,472.0526 C 353.62164,469.98321 370.58548,464.80927 385.19739,457.51031 C 404.84049,447.69817 422.17592,433.06013 435.24801,415.24753 C 436.21173,413.93434 438.0071,411.52456 439.23772,409.89248 C 443.57326,404.14262 445.99908,399.56452 450.82605,388.02274 C 456.64544,374.10804 460.14872,360.40236 461.5051,346.24363 C 461.95578,341.53907 461.97211,341.03951 461.65893,341.53405 C 461.4475,341.86795 461.10424,344.56593 460.99718,346.73562 C 460.96977,347.29086 460.77329,348.42658 460.56055,349.25945 C 459.90981,351.80728 459.609,353.45836 459.75308,353.69151 C 459.82862,353.81371 459.72948,354.22936 459.5328,354.61517 C 459.3361,355.00097 459.11541,355.88449 459.04235,356.57854 C 458.96931,357.2726 458.74032,358.29475 458.53354,358.84999 C 457.89206,360.57232 457.09357,363.38227 457.09357,363.91738 C 457.09357,364.19803 456.98828,364.53554 456.85959,364.66741 C 456.7309,364.79928 456.38665,365.84849 456.09462,366.99899 C 455.80256,368.14949 455.28321,369.70383 454.94047,370.45308 C 454.59776,371.20233 454.31737,371.95513 454.31737,372.12597 C 454.31737,372.29681 454.23218,372.3514 454.12808,372.24728 C 454.02397,372.14316 453.93129,369.42689 453.92216,366.21113 C 453.90808,361.26549 453.82002,359.92629 453.35079,357.52265 C 452.14982,351.37058 449.27145,345.72025 445.62765,342.36188 C 444.10205,340.95578 441.46429,339.71157 438.28892,338.90028 C 432.07869,337.3136 428.56572,337.91317 421.02455,341.84681 C 419.16255,342.81807 416.66396,344.26171 415.47213,345.05491 C 414.2803,345.8481 409.38693,349.11528 404.59797,352.3153 C 385.41775,365.13166 382.05839,367.04427 375.35675,368.96341 C 373.2858,369.55646 372.67854,369.62498 370.43529,369.51872 C 368.10874,369.40851 367.56712,369.27879 364.47285,368.0907 C 361.41757,366.91757 356.1324,364.11854 355.72359,363.45707 C 355.63628,363.3158 355.75244,363.09524 355.98171,362.96694 C 356.38103,362.74346 370.19636,352.36817 374.47836,349.07596 C 384.92245,341.04607 400.09437,326.88156 406.18109,319.47828 C 406.86584,318.64542 408.03463,317.28255 408.77841,316.44969 C 409.52218,315.61683 410.44747,314.51736 410.83461,314.00644 C 411.22174,313.49551 412.22334,312.18944 413.06038,311.10404 C 414.75136,308.91131 414.6263,309.0859 417.1157,305.44276 C 418.10101,304.00081 419.18356,302.30995 419.52138,301.6853 C 419.8592,301.06065 420.45163,300.05756 420.83788,299.45619 C 421.52506,298.38631 424.49645,292.4548 425.34739,290.45427 C 427.2818,285.90662 428.89564,281.14594 429.71078,277.58275 C 429.93308,276.61108 430.21464,275.41857 430.33649,274.93273 C 430.45834,274.44689 430.7856,272.62974 431.06375,270.89461 C 432.52821,261.75922 432.39301,251.11271 430.74164,245.53014 C 429.48326,241.27612 429.31653,241.01683 423.81436,234.75829 C 410.75528,219.90402 393.79069,206.7845 377.57819,199.00167 C 375.29598,197.90609 369.96475,195.61668 365.73103,193.91411 C 356.6348,190.25608 354.13202,189.10458 349.57853,186.48252 C 336.27766,178.82339 328.11312,171.26703 312.12385,151.81784 C 309.6971,148.86596 308.02607,147.03543 307.88602,147.17549 C 307.75884,147.30266 307.49598,148.36005 307.30188,149.52524 C 307.10778,150.69043 306.81567,152.43877 306.65276,153.41045 C 305.04718,162.98661 301.30102,171.42553 296.17059,177.02348 C 294.08849,179.29533 293.4068,179.87945 288.88049,183.27014 C 281.60516,188.72015 273.96093,193.51761 265.28271,198.07993 C 250.26001,205.97766 246.29576,208.23903 239.68763,212.6804 C 230.94527,218.5562 224.24014,224.07861 216.67586,231.63312 C 209.535,238.76476 205.99759,242.85582 201.26178,249.45971 C 193.10787,260.83002 186.80195,273.45559 181.98433,288.05663 C 178.62403,298.2409 176.62073,307.69758 175.38145,319.2259 C 174.94184,323.31536 174.94301,340.34764 175.38319,344.59037 C 176.61658,356.47846 178.74898,366.484 182.2903,376.99955 C 185.76312,387.31172 191.7835,399.98547 194.95884,403.66867 C 196.37558,405.31201 200.32461,408.69558 200.82582,408.69558 C 200.99794,408.69558 201.46541,408.97042 201.86464,409.30637 C 202.60465,409.92902 207.73025,412.48132 208.24073,412.48132 C 208.39525,412.48132 208.82973,412.64062 209.20625,412.83534 C 210.23795,413.36885 215.86867,414.79779 216.39594,414.65989 C 216.64946,414.59361 217.22987,414.69522 217.68576,414.88569 C 218.83314,415.36509 225.3425,415.98765 229.44436,416.01026 C 235.67343,416.04461 246.69466,415.12849 247.91604,414.47484 C 248.17314,414.33724 248.49737,414.29504 248.63654,414.38106 C 248.77571,414.46707 249.66558,414.41704 250.61403,414.26988 L 252.33848,414.00233 L 255.97129,415.84321 C 262.25602,419.02795 265.39943,419.70724 274.99944,419.9551 C 282.3225,420.14419 287.11038,419.84014 291.54104,418.90466 C 297.41964,417.66347 304.35269,415.06395 312.66102,410.98585 C 317.17929,408.76806 332.94085,399.78432 345.91577,392.03135 C 356.77984,385.5397 359.19824,384.2827 363.71197,382.78153 C 367.2758,381.59627 367.45073,381.56452 370.40011,381.5678 C 373.42475,381.57116 373.43267,381.57275 376.47501,382.7852 C 378.55942,383.61589 380.36655,384.57114 382.19813,385.81043 C 385.6624,388.15442 393.41784,395.05843 399.16723,400.91659 C 412.79491,414.802 414.28901,416.15293 417.87377,417.83045 C 419.48245,418.58323 419.86306,418.65422 422.96671,418.78056 L 426.32103,418.91708 L 424.86074,420.61637 C 422.86298,422.94112 412.75848,432.988 410.27658,435.11735 C 405.76902,438.98463 403.58819,440.76628 401.06461,442.6432 C 399.6071,443.72724 398.01709,444.98006 397.53125,445.42728 C 397.04542,445.8745 396.09204,446.54479 395.41263,446.91682 C 394.73323,447.28884 393.49778,448.069 392.66719,448.65049 C 391.8366,449.23201 390.97385,449.82134 390.74997,449.96015 C 382.8887,454.83432 381.81914,455.44902 377.43618,457.6121 C 375.19835,458.7165 373.28931,459.74645 373.19387,459.90088 C 373.09843,460.05531 372.81811,460.18166 372.57093,460.18166 C 372.32376,460.18166 371.00617,460.74952 369.64296,461.44357 C 368.27975,462.13762 367.04916,462.70548 366.90831,462.70548 C 366.76746,462.70548 364.54261,463.55215 361.96421,464.58697 C 356.03262,466.96757 351.16898,468.58007 347.93805,469.23725 C 347.24399,469.37843 345.65398,469.72914 344.40469,470.01661 C 340.26313,470.96963 337.57115,471.50894 335.35993,471.82866 C 334.15748,472.00253 333.17366,472.23558 333.17366,472.34658 C 333.17366,472.61527 333.10022,472.62024 337.51761,472.0526 z M 352.22918,459.04427 C 359.78002,458.5892 361.91054,458.34481 365.73103,457.49547 C 373.93364,455.67193 380.287,453.15951 387.92546,448.71866 C 392.41442,446.10889 394.08694,444.47411 394.42984,442.36106 C 394.57977,441.43714 393.9301,438.71216 393.33829,437.78269 C 392.65602,436.71115 390.97854,437.1004 388.24879,438.96371 C 386.06633,440.45345 380.40068,443.28042 377.71921,444.21764 C 374.96137,445.18154 369.40969,446.64056 366.48818,447.1692 C 362.81742,447.83345 355.45557,448.56988 350.78263,448.74031 C 346.40333,448.90002 338.69304,448.57679 334.18319,448.04447 C 331.53531,447.73192 324.65674,446.21179 322.37373,445.43465 C 319.33634,444.40072 314.81867,441.91755 312.89604,440.2252 C 311.54251,439.03377 310.79421,438.72912 309.22118,438.72912 C 306.9438,438.72912 303.44858,441.07176 302.98801,442.90684 C 302.75943,443.81756 303.36193,447.12633 303.9249,448.05206 C 304.76518,449.43378 310.00468,452.88858 314.06869,454.74059 C 318.92765,456.95489 326.98383,458.84483 333.29985,459.25216 C 336.92963,459.48622 346.67123,459.37925 352.22918,459.04427 z M 338.85227,425.00654 C 339.54632,424.67999 341.3998,423.28984 342.97112,421.91733 C 349.978,415.79695 350.93442,415.21677 356.34443,413.80484 C 359.58205,412.95989 360.05477,412.90171 363.83816,412.88281 C 367.25772,412.8657 368.22414,412.95093 370.14712,413.43921 C 374.52766,414.55154 376.30748,415.7521 377.64523,418.49701 C 378.9016,421.07495 380.37236,423.65037 380.94788,424.28021 C 381.96184,425.38991 384.58289,424.77637 385.9944,423.09888 C 388.13307,420.55721 387.28873,416.66792 383.34975,410.91687 C 380.15303,406.24954 378.39474,404.91662 373.87131,403.73156 C 370.52811,402.8557 363.32955,402.62567 358.84992,403.25156 C 352.52038,404.13593 348.88441,405.69283 343.26886,409.92324 C 337.40812,414.33838 334.3952,417.21448 333.52519,419.22445 C 332.58716,421.39157 333.45748,424.03845 335.43652,425.03736 C 336.84654,425.74905 337.28256,425.74512 338.85227,425.00654 z"
       style="fill:#00578c;filter:url(#filter3679)" />
    <path
       id="path2515"
       d="M 311.46874,475.32745 C 276.96171,473.46327 245.07043,460.5198 219.98001,438.19561 C 206.50867,426.20948 195.3971,411.59346 187.28812,395.1931 C 179.24146,378.91879 175.04575,364.24094 173.11175,345.5999 C 172.66749,341.31789 172.66629,322.34408 173.11001,318.21637 C 175.05757,300.09931 179.51964,284.3889 187.18269,268.66818 C 191.63626,259.53169 195.81108,252.66784 201.58528,244.98879 C 209.13048,234.9545 219.87024,224.34176 230.83246,216.08752 C 238.90358,210.0102 247.62752,204.66585 259.60409,198.46178 C 272.29798,191.88615 278.59521,188.04418 287.24,181.60101 C 296.72978,174.52805 300.38604,168.90041 303.5296,156.52837 C 304.27929,153.57785 305.50116,147.11883 305.95626,143.70063 C 306.1231,142.44753 306.32629,141.42227 306.40779,141.42227 C 306.64107,141.42227 310.32407,145.67186 314.39152,150.63424 C 329.74422,169.36482 338.1671,177.13265 351.34521,184.71401 C 355.39393,187.04324 357.38192,187.94534 366.65504,191.66118 C 378.43882,196.38307 386.56834,200.58043 395.35365,206.47858 C 416.55516,220.71252 434.23661,240.22375 446.29551,262.69217 C 456.95681,282.55655 462.84106,302.81776 464.18,324.27356 C 464.545,330.12239 464.34506,342.18972 463.79736,347.36657 C 462.63343,358.36812 460.55531,368.06794 457.22769,378.03108 C 455.25951,383.92399 453.24057,388.78847 449.42399,396.83359 C 446.32642,403.36303 444.95692,405.8059 442.20797,409.70511 C 441.27829,411.02381 439.56789,413.44635 438.40711,415.08851 C 428.64573,428.89806 416.19283,441.02131 402.07414,450.45972 C 381.53519,464.19007 357.23953,472.77368 332.75502,474.94998 C 327.49282,475.4177 316.68657,475.60933 311.46874,475.32745 z M 326.61171,473.30452 C 333.96443,472.98831 336.90597,472.70501 342.46185,471.77796 C 363.21295,468.31549 383.78091,460.24944 400.68604,448.94444 C 408.44999,443.75245 414.1579,439.02524 421.39219,431.79592 C 429.48576,423.70791 434.93364,416.96745 442.40856,405.79318 C 444.17072,403.15893 447.18051,397.35287 449.16803,392.75385 C 452.46568,385.12309 453.81113,381.7193 455.33679,377.14774 C 461.86989,357.57157 463.8617,339.18089 461.63735,318.97352 C 458.97075,294.74856 450.20032,271.12787 436.19492,250.45161 C 434.73754,248.30004 432.90188,245.68788 432.11571,244.6468 C 431.32954,243.60573 430.27147,242.12929 429.76444,241.36583 C 427.57191,238.0644 418.98452,228.71903 413.3737,223.52835 C 398.16345,209.45707 385.34712,201.35508 366.15028,193.67554 C 362.28595,192.12965 358.00379,190.36805 356.63436,189.76088 C 351.70701,187.57621 343.61356,182.57522 337.8142,178.1318 C 330.69949,172.68057 323.54717,165.17547 311.96997,151.01281 C 309.98424,148.58363 308.17477,146.563 307.94892,146.52252 C 307.60712,146.46126 307.42019,147.11699 306.83376,150.43445 C 304.58765,163.14075 301.56477,170.44418 295.91373,176.81781 C 293.91097,179.07667 292.95412,179.89995 288.12334,183.52068 C 281.04522,188.82584 273.94153,193.27542 265.28271,197.82754 C 254.15215,203.6791 251.38374,205.18365 247.48973,207.49746 C 230.44525,217.62524 215.87956,230.17116 204.74696,244.31326 C 194.48915,257.3441 187.06384,271.38442 181.47957,288.30902 C 178.11926,298.49328 176.11597,307.94996 174.87669,319.47828 C 174.43824,323.55695 174.43939,340.10634 174.87843,344.33798 C 176.7365,362.24717 181.0001,377.54196 188.44425,393.00257 C 190.57366,397.4251 193.39126,402.59122 194.22168,403.59563 C 194.53238,403.9714 195.6107,405.58496 196.61796,407.18128 C 205.42224,421.13454 218.01416,434.64958 231.46342,444.58125 C 241.83864,452.24288 252.40124,458.09932 264.27317,462.77264 C 279.80527,468.88676 296.39922,472.48799 312.73066,473.2889 C 318.65551,473.57947 320.17821,473.58118 326.61171,473.30452 z"
       style="fill:#014975;filter:url(#filter3675)" />
  </g>
</svg>
