<?xml version="1.0" encoding="UTF-8" standalone="no"?>
<!-- Created with Inkscape (http://www.inkscape.org/) -->
<svg
   xmlns:dc="http://purl.org/dc/elements/1.1/"
   xmlns:cc="http://creativecommons.org/ns#"
   xmlns:rdf="http://www.w3.org/1999/02/22-rdf-syntax-ns#"
   xmlns:svg="http://www.w3.org/2000/svg"
   xmlns="http://www.w3.org/2000/svg"
   xmlns:sodipodi="http://sodipodi.sourceforge.net/DTD/sodipodi-0.dtd"
   xmlns:inkscape="http://www.inkscape.org/namespaces/inkscape"
   width="688.57141"
   height="787.7724"
   id="svg2"
   sodipodi:version="0.32"
   inkscape:version="0.46"
   version="1.0"
   sodipodi:docname="condensation.svg"
   inkscape:output_extension="org.inkscape.output.svg.inkscape">
  <defs
     id="defs4">
    <inkscape:perspective
       sodipodi:type="inkscape:persp3d"
       inkscape:vp_x="0 : 526.18109 : 1"
       inkscape:vp_y="0 : 1000 : 0"
       inkscape:vp_z="744.09448 : 526.18109 : 1"
       inkscape:persp3d-origin="372.04724 : 350.78739 : 1"
       id="perspective10" />
    <inkscape:perspective
       id="perspective2507"
       inkscape:persp3d-origin="372.04724 : 350.78739 : 1"
       inkscape:vp_z="744.09448 : 526.18109 : 1"
       inkscape:vp_y="0 : 1000 : 0"
       inkscape:vp_x="0 : 526.18109 : 1"
       sodipodi:type="inkscape:persp3d" />
  </defs>
  <sodipodi:namedview
     id="base"
     pagecolor="#ffffff"
     bordercolor="#666666"
     borderopacity="1.0"
     inkscape:pageopacity="0.0"
     inkscape:pageshadow="2"
     inkscape:zoom="0.021875"
     inkscape:cx="350"
     inkscape:cy="412.64688"
     inkscape:document-units="px"
     inkscape:current-layer="layer1"
     showgrid="false"
     inkscape:window-width="1670"
     inkscape:window-height="964"
     inkscape:window-x="1680"
     inkscape:window-y="33" />
  <metadata
     id="metadata7">
    <rdf:RDF>
      <cc:Work
         rdf:about="">
        <dc:format>image/svg+xml</dc:format>
        <dc:type
           rdf:resource="http://purl.org/dc/dcmitype/StillImage" />
      </cc:Work>
    </rdf:RDF>
  </metadata>
  <g
     inkscape:label="Ebene 1"
     inkscape:groupmode="layer"
     id="layer1"
     transform="translate(-18.571431,-120.21934)">
    <path
       id="path2527"
       d="M 346.51815,902.16292 C 295.42529,899.40275 246.8997,886.18381 202.09322,862.81982 C 169.80914,845.98559 145.15555,827.54366 118.04809,799.95051 C 91.736269,773.16729 74.193551,748.58459 57.937233,715.71692 C 39.030972,677.49146 29.368934,643.81485 24.871785,600.46874 C 23.844617,590.5683 23.841831,546.69887 24.867765,537.15518 C 29.426725,494.74567 40.013076,457.84104 58.220763,420.88467 C 66.008714,405.07737 70.73453,396.69612 78.373169,385.14428 C 91.485337,365.31488 102.72671,351.70721 121.54021,332.89061 C 151.71735,302.70852 179.91041,282.68534 225.43462,259.10305 C 240.75228,251.16825 250.71393,245.722 257.82082,241.39677 C 275.64681,230.54796 297.16024,215.14847 303.96573,208.36587 C 308.42931,203.9173 315.48339,193.65397 318.36703,187.4127 C 322.34821,178.79597 326.65149,164.0555 329.31979,149.89514 C 330.55547,143.3375 333.08469,127.23352 333.09368,125.86602 C 333.09542,125.60178 333.51211,125.47048 334.01967,125.57425 C 335.05631,125.7862 338.92874,130.19222 351.87935,145.89488 C 373.58769,172.21632 388.67332,188.94184 398.83789,197.95806 C 410.75029,208.52465 425.25951,218.89632 439.88377,227.29901 C 449.08561,232.58612 452.6934,234.21713 474.27206,242.84522 C 501.57438,253.76188 524.81587,265.92431 544.62832,279.66313 C 586.08521,308.41116 625.42961,350.12292 650.40543,391.80481 C 681.07592,442.99057 697.88348,495.56165 701.35307,551.16002 C 702.19697,564.68314 701.7347,592.58406 700.46837,604.55348 C 696.33706,643.60284 687.47117,675.40982 670.53984,711.92394 C 659.74048,735.21376 657.769,738.69811 645.55509,756.08092 C 632.05699,775.29136 622.11157,787.09231 605.05139,804.14163 C 587.4399,821.74187 574.53072,832.47179 556.29902,844.66388 C 514.6725,872.5009 463.779,891.98905 413.82382,899.22062 C 394.70704,901.98798 366.28169,903.23062 346.51815,902.16292 z M 439.59344,861.59685 C 460.40184,860.34277 465.1575,859.67054 478.68885,856.07071 C 494.4072,851.8891 506.391,846.9874 520.18234,839.09883 C 530.87939,832.98023 533.97636,830.52214 535.8734,826.64467 L 537.46635,823.38884 L 536.42113,819.52747 C 535.84625,817.40369 534.94468,815.13356 534.41763,814.48269 C 533.54015,813.39901 533.266,813.36248 531.16611,814.04912 C 529.90483,814.46162 527.29733,815.86689 525.37166,817.17203 C 520.62309,820.39046 505.37064,828.05852 499.98788,829.93353 C 480.67514,836.66093 458.34726,839.92926 431.42251,839.96993 C 406.24437,840.00797 395.04013,838.83355 376.57021,834.22012 C 369.84,832.53902 356.21749,826.02799 351.4782,822.22708 C 347.02369,818.6545 345.24046,817.58144 343.08005,817.17325 C 338.75541,816.35625 330.76272,820.6164 328.7796,824.79551 C 327.84235,826.77065 327.83436,827.24157 328.66964,831.28056 C 329.16501,833.67598 330.00908,836.30544 330.54533,837.12385 C 331.7893,839.02238 342.9,846.43293 349.70943,849.90578 C 361.3017,855.81787 382.09494,861.04144 398.16101,862.07751 C 406.42741,862.61056 426.66991,862.37575 439.59344,861.59685 z M 413.297,780.27084 C 414.92148,779.04157 418.74521,775.81695 421.79418,773.10509 C 430.72778,765.15927 433.7728,762.8679 438.27912,760.70048 C 449.52627,755.29081 468.1255,753.08231 480.73123,755.65961 C 487.93065,757.13157 493.56269,759.5739 496.68506,762.578 C 497.91748,763.76374 500.11242,767.09719 501.56271,769.98569 C 505.78015,778.3855 508.08834,781.90859 509.62711,782.29478 C 513.27228,783.2097 518.51512,779.34343 519.78636,774.80294 C 521.23063,769.64455 518.80562,763.03613 511.53306,752.31181 C 504.17743,741.46494 500.82195,738.96257 489.77602,736.08638 C 478.09948,733.04593 458.26966,733.60251 445.40034,737.33194 C 435.00189,740.34525 429.24171,743.61381 415.66706,754.20369 C 404.74881,762.72126 398.93687,769.14598 398.09621,773.62706 C 397.30901,777.8232 399.7787,782.07648 403.79802,783.44662 C 406.32384,784.30768 409.25918,783.32629 413.297,780.27084 z M 284.97583,770.83677 C 302.8944,769.38173 322.01992,763.32633 347.39346,751.07436 C 357.65155,746.12114 393.47695,725.72834 424.42009,707.2287 C 448.74943,692.68317 457.22789,688.25652 467.01815,684.98801 C 474.5321,682.47946 474.68165,682.45549 482.7736,682.46259 L 490.94309,682.46976 L 497.83418,685.30892 C 501.9638,687.01034 507.03572,689.69665 510.49083,692.01241 C 518.20077,697.17994 536.8281,713.83946 550.44985,727.75012 C 575.20821,753.03358 581.29046,758.85855 586.72542,762.49134 C 594.28308,767.54289 596.63042,768.24214 605.8995,768.20316 C 615.3034,768.1636 618.51827,767.39351 623.86579,763.89953 C 640.53167,753.01042 656.2807,729.00367 665.81082,699.96147 C 671.4183,682.87304 673.49913,672.29264 674.57196,655.41293 C 675.31287,643.75566 674.86075,636.44027 672.78109,626.43605 C 669.77676,611.98401 661.56583,597.65128 652.98559,591.8817 C 648.76675,589.04482 640.96699,586.35785 632.69754,584.89263 C 626.13078,583.72908 622.13549,584.19292 613.48908,587.12263 C 604.29723,590.23718 594.4867,595.94692 568.55326,613.27539 C 518.84567,646.48951 509.63747,651.79265 494.47625,655.93745 C 490.54558,657.01203 488.76929,657.16435 482.80555,656.9382 C 475.99038,656.67976 475.53325,656.57756 468.13598,653.65857 C 458.90719,650.01686 451.05307,645.34671 431.13074,631.65484 C 406.74726,614.89697 375.19825,594.98138 364.7362,589.74267 C 345.85774,580.28958 330.54665,575.2728 315.4077,573.57985 C 302.03098,572.08397 271.10659,575.24392 257.82082,579.46427 C 251.09984,581.59925 236.60973,589.20859 226.78321,595.76336 C 208.0256,608.27561 202.02669,614.25009 191.74079,630.66303 C 185.17181,641.14497 181.70988,648.74987 178.52355,659.69755 C 174.46689,673.63558 173.66102,680.21125 174.33994,693.83435 C 174.94874,706.05037 175.77406,709.95165 180.01865,720.67697 C 187.05476,738.45606 192.04582,744.58481 208.38847,755.51361 C 222.95605,765.25538 235.68808,769.73395 251.98547,770.84908 C 261.60552,771.50731 276.78817,771.50165 284.97583,770.83677 z M 114.45118,396.7649 C 138.54177,393.12753 183.4128,369.88809 231.56174,336.11142 C 259.29598,316.65574 290.35717,287.63927 301.40893,270.86219 C 307.61592,261.43969 309.90095,254.19608 307.87483,250.36519 C 306.87894,248.4822 304.03048,246.59663 300.69325,245.61127 C 299.22127,245.17664 297.57264,244.32943 297.02965,243.72858 C 296.09128,242.69025 296.14355,242.55154 298.08474,240.92853 C 299.20805,239.98935 302.75302,237.88279 305.96247,236.2473 C 322.54805,227.79545 331.17742,221.03482 337.8683,211.25082 C 343.55476,202.93559 344.78478,198.60314 344.74361,187.03411 C 344.70146,175.18903 341.83641,154.304 339.45841,148.5072 L 338.74584,146.77019 L 338.30073,149.3961 C 338.05591,150.84034 337.2787,155.43568 336.5736,159.60796 C 333.94649,175.15324 328.80914,188.96146 321.63548,199.75884 C 310.23534,216.91767 280.58684,239.13571 242.06537,259.38723 C 216.35899,272.90159 209.93155,276.39391 200.92615,281.74001 C 171.46546,299.22949 145.70728,319.13821 124.77482,340.59804 C 103.90746,361.99113 95.627637,374.84917 95.60499,385.89695 C 95.592438,392.01867 98.763009,395.78039 104.79039,396.79496 C 108.80656,397.47099 109.79505,397.46791 114.45118,396.7649 z"
       style="fill:#96c5e2" />
    <path
       style="fill:#0071b8"
       d="M 347.12198,902.00588 C 216.79164,897.02845 92.213584,811.90978 46.671694,688.57196 C -3.4002058,562.08178 34.770134,406.97633 138.69173,318.90039 C 188.74172,270.28087 261.10475,253.96542 309.84123,204.09902 C 327.96698,183.98358 328.46442,148.76164 336.15657,129.74755 C 374.4038,176.75971 415.16139,226.68782 475.30198,245.55873 C 626.98478,302.95133 727.4163,474.71778 694.94031,635.07252 C 673.52518,754.25808 579.75553,854.81474 463.7412,887.81424 C 426.04475,899.40743 386.47363,903.78157 347.12198,902.00588 z M 440.19727,863.77407 C 472.10181,860.39184 536.45651,853.31356 535.3491,814.72363 C 506.11436,826.55603 471.71076,841.86002 436.94499,839.84673 C 402.63559,842.91343 368.28093,833.19932 339.54307,817.06724 C 303.992,841.96471 370.18858,863.68408 393.5402,863.91069 C 409.04751,865.14196 424.67657,864.43392 440.19727,863.77407 z M 409.9047,784.70558 C 431.26803,761.66502 474.76194,742.47719 499.58784,769.66642 C 513.37712,805.0886 532.20858,760.88931 508.97964,747.76641 C 482.86442,722.72036 436.62747,733.06592 412.26667,756.59036 C 400.49163,761.72941 385.94056,789.07444 409.9047,784.70558 z M 285.57966,773.014 C 353.37705,762.57331 405.86273,714.47937 466.74668,687.44618 C 503.08473,674.07105 529.00386,713.25028 553.562,733.15617 C 572.87634,760.81331 614.92737,790.56818 640.03869,751.38572 C 672.10131,709.66632 691.68778,645.64947 659.94057,598.28731 C 628.73407,564.81125 585.31244,601.31716 556.83052,620.54076 C 527.85159,635.9738 496.16042,669.59169 461.17871,650.95901 C 412.76758,622.07991 368.39607,578.91384 309.96755,573.04129 C 252.16167,568.87843 192.59801,604.88986 176.51119,661.92582 C 163.50066,702.903 182.68722,753.39549 225.5826,766.91649 C 244.69109,773.6076 265.55295,774.50611 285.57966,773.014 z M 107.28907,426.63747 C 175.98971,405.67203 238.17134,364.80621 290.1119,315.6067 C 309.22313,293.82448 344.31634,265.03108 329.55248,235.98079 C 362.89657,221.63695 347.50823,152.09616 336.95079,150.11448 C 335.5394,189.23618 309.03625,220.86718 275.98152,239.00959 C 225.42213,270.2965 168.53327,293.4661 127.3739,337.97586 C 109.27312,358.08624 51.835794,409.62846 95.324044,427.82158 L 100.62913,427.57338 L 107.28907,426.63748 L 107.28907,426.63747 z"
       id="path2519" />
    <path
       id="path2517"
       d="M 347.10169,900.99574 C 277.90323,897.25866 211.75991,873.82407 158.03632,834.00987 C 123.78347,808.62534 93.770093,775.53184 71.657579,738.76656 C 49.265621,701.53666 34.287033,659.61488 28.230748,617.22441 C 25.587467,598.72299 25.282085,593.69397 25.282085,568.66607 C 25.282085,544.23423 25.556585,539.50591 27.9753,522.27503 C 34.644639,474.76277 53.679366,424.31771 79.73566,385.10182 C 93.168247,364.88518 104.39574,351.21242 122.12727,333.47763 C 151.18022,304.41932 181.25701,283.17587 226.60169,259.68659 C 241.92835,251.74713 251.88312,246.3043 258.98789,241.97925 C 277.30313,230.82977 296.78111,216.71464 304.55577,208.95751 C 319.42346,194.12334 327.49515,173.22496 333.03686,135.21719 C 333.63575,131.10965 334.28446,127.59024 334.47844,127.39627 C 334.6724,127.2023 335.41843,127.80581 336.13627,128.7374 C 336.8541,129.66899 338.77734,131.87545 340.41013,133.64065 C 342.04292,135.40584 346.90339,141.18284 351.21117,146.47842 C 388.13257,191.86611 407.91712,210.23446 439.18101,228.1513 C 448.96202,233.75664 453.49396,235.81509 475.28168,244.54858 C 493.91949,252.01945 509.24263,259.25607 521.84228,266.53764 C 567.1949,292.74776 609.21509,332.16698 639.56633,376.97479 C 664.80521,414.23519 683.39962,456.99218 692.80503,499.39495 C 698.80319,526.43662 701.13797,550.53239 700.53495,579.1697 C 699.80594,613.78676 694.74395,643.03728 683.82192,675.74477 C 678.99229,690.2078 674.44142,701.21666 665.54181,719.96546 C 658.48238,734.83762 654.55524,741.49867 644.25013,756.08004 C 630.28485,775.84029 620.42433,787.6067 604.46477,803.555 C 587.77368,820.23436 574.75296,830.9675 556.00725,843.49909 C 508.76261,875.08229 451.90779,895.09486 395.1507,900.11962 C 382.8818,901.20581 359.04114,901.64049 347.10169,900.99574 z M 406.74583,892.84054 C 443.98004,888.0559 483.20219,876.0932 516.98645,859.21725 C 562.40333,836.53057 602.48466,802.68589 632.70868,761.50132 C 634.93691,758.46507 639.088,752.89342 641.93332,749.11987 C 651.95752,735.8256 657.56628,725.24056 668.72674,698.55476 C 682.18178,666.38254 690.28171,634.69357 693.4178,601.95712 C 694.45982,591.07968 694.49758,589.92466 693.77347,591.06809 C 693.28464,591.84008 692.49098,598.07809 692.24344,603.09464 C 692.18007,604.37842 691.72579,607.00433 691.23392,608.93 C 689.72934,614.82086 689.03382,618.63833 689.36696,619.1774 C 689.54161,619.45994 689.3124,620.42096 688.85765,621.31298 C 688.40285,622.205 687.8926,624.24779 687.72367,625.85251 C 687.55479,627.45724 687.02535,629.82055 686.54726,631.10433 C 685.06409,635.08653 683.2179,641.58344 683.2179,642.82067 C 683.2179,643.46956 682.97445,644.24992 682.67691,644.55481 C 682.37936,644.85971 681.58342,647.2856 680.90821,649.94567 C 680.23295,652.60575 679.03215,656.19954 678.23971,657.93189 C 677.44732,659.66423 676.79902,661.40479 676.79902,661.79979 C 676.79902,662.19479 676.60207,662.321 676.36137,662.08026 C 676.12066,661.83952 675.90638,655.55922 675.88526,648.12405 C 675.8527,636.68923 675.6491,633.59284 674.56419,628.03538 C 671.78744,613.81116 665.13234,600.74701 656.7075,592.9821 C 653.18014,589.73105 647.08138,586.85432 639.73958,584.97853 C 625.38088,581.30997 617.25854,582.69622 599.82257,591.79121 C 595.51743,594.03687 589.74044,597.37472 586.9848,599.20867 C 584.22917,601.04262 572.91518,608.59667 561.8426,615.99545 C 517.49595,645.62821 509.72875,650.05037 494.23387,654.4876 C 489.44561,655.8588 488.04156,656.01723 482.85493,655.77154 C 477.47571,655.51673 476.22344,655.21681 469.06915,652.46981 C 462.00504,649.75742 449.78518,643.28576 448.83997,641.75638 C 448.6381,641.42976 448.90666,640.9198 449.43676,640.62314 C 450.36004,640.10644 482.3025,616.11768 492.20294,608.50577 C 516.35077,589.93981 551.42982,557.19 565.50294,540.07285 C 567.08616,538.14719 569.78853,534.9961 571.50821,533.07043 C 573.22789,531.14477 575.36725,528.60269 576.26236,527.42139 C 577.15746,526.24007 579.47326,523.22028 581.40857,520.71073 C 585.31831,515.64091 585.02914,516.04459 590.7849,507.62127 C 593.06303,504.28732 595.56602,500.37788 596.34709,498.93363 C 597.12817,497.48938 598.49791,495.17011 599.39096,493.77969 C 600.97979,491.30601 607.84997,477.59176 609.81742,472.96631 C 614.28998,462.45167 618.02134,451.44448 619.90604,443.20602 C 620.42002,440.95941 621.07101,438.20221 621.35274,437.07891 C 621.63447,435.9556 622.39114,431.75415 623.03425,427.74234 C 626.42022,406.62037 626.10762,382.00455 622.28949,369.09706 C 619.37998,359.26131 618.9945,358.66182 606.27291,344.19143 C 576.07895,309.84681 536.85505,279.5131 499.37007,261.51839 C 494.09335,258.98529 481.767,253.69195 471.9782,249.75542 C 450.94678,241.29769 445.16009,238.6353 434.63195,232.57282 C 403.87894,214.86411 385.00168,197.39302 348.03282,152.42447 C 342.42192,145.59941 338.55834,141.36704 338.23452,141.69087 C 337.94047,141.98491 337.33271,144.42971 336.88393,147.12375 C 336.43515,149.81779 335.75977,153.86014 335.3831,156.10675 C 331.67083,178.24783 323.00933,197.75949 311.14724,210.70254 C 306.3332,215.95528 304.75705,217.30583 294.29176,225.14546 C 277.47044,237.74645 259.79618,248.83868 239.73123,259.38723 C 204.9972,277.64761 195.83143,282.87614 180.55276,293.14504 C 160.33952,306.7305 144.83655,319.49889 127.34715,336.96571 C 110.83673,353.4548 102.65788,362.91375 91.708195,378.18264 C 72.855496,404.47196 58.275574,433.66359 47.136727,467.42273 C 39.367357,490.96981 34.735526,512.83464 31.870186,539.48932 C 30.85376,548.94457 30.856459,588.32497 31.874206,598.1346 C 34.725924,625.6211 39.656253,648.75495 47.844154,673.068 C 55.87369,696.91081 69.793419,726.21384 77.135135,734.72978 C 80.410781,738.52935 89.54136,746.35251 90.70022,746.35251 C 91.098173,746.35251 92.179003,746.98798 93.102062,747.76473 C 94.813039,749.20437 106.66398,755.10554 107.84426,755.10554 C 108.20151,755.10554 109.20607,755.47387 110.07664,755.92407 C 112.46204,757.1576 125.48084,760.46146 126.69995,760.14262 C 127.2861,759.98938 128.62808,760.22431 129.68214,760.6647 C 132.33501,761.77313 147.38533,763.21254 156.86925,763.26482 C 171.2715,763.34424 196.75374,761.22607 199.5777,759.71477 C 200.17214,759.39662 200.92178,759.29906 201.24356,759.49793 C 201.56535,759.6968 203.62282,759.58114 205.81572,759.24088 L 209.80283,758.62227 L 218.20226,762.87858 C 232.73323,770.24203 240.00112,771.81262 262.19733,772.38571 C 279.12901,772.82289 290.19909,772.11991 300.44323,769.95698 C 314.03517,767.08721 330.0651,761.07686 349.27483,751.64786 C 359.72153,746.52011 396.1639,725.74876 426.16327,707.82309 C 451.28212,692.81372 456.87371,689.9074 467.30992,686.43654 C 475.54987,683.69609 475.95433,683.62269 482.7736,683.63027 C 489.76689,683.63805 489.7852,683.64172 496.81941,686.44503 C 501.63877,688.36567 505.81704,690.5743 510.05186,693.43967 C 518.06159,698.85923 535.99299,714.82201 549.28618,728.36668 C 580.79478,760.4712 584.2493,763.59469 592.53764,767.47328 C 596.25707,769.21379 597.13708,769.37793 604.31305,769.67005 L 612.06858,769.98569 L 608.69224,773.91463 C 604.07321,779.28969 580.71055,802.51911 574.97214,807.4424 C 564.5502,816.38396 559.5079,820.50331 553.67311,824.84295 C 550.3032,827.34935 546.62693,830.24602 545.50362,831.28004 C 544.38032,832.31406 542.17601,833.86382 540.60515,834.72401 C 539.0343,835.58414 536.17781,837.38796 534.2574,838.73242 C 532.33699,840.07695 530.34222,841.43956 529.82459,841.7605 C 511.64851,853.03009 509.17559,854.45134 499.04172,859.45259 C 493.86763,862.00608 489.45373,864.38743 489.23306,864.74449 C 489.01239,865.10156 488.36426,865.39368 487.79276,865.39368 C 487.22127,865.39368 484.17488,866.70663 481.02299,868.31135 C 477.87111,869.91607 475.02585,871.22903 474.70019,871.22903 C 474.37453,871.22903 469.23046,873.18661 463.26893,875.57922 C 449.55446,881.08342 438.30923,884.81168 430.83898,886.33115 C 429.23425,886.65758 425.55798,887.46846 422.66948,888.13311 C 413.09378,890.33659 406.86962,891.58355 401.75705,892.32277 C 398.97686,892.72477 396.70217,893.26361 396.70217,893.52024 C 396.70217,894.14148 396.53238,894.15297 406.74583,892.84054 z M 440.76051,862.76392 C 458.21884,861.71175 463.14484,861.14671 471.9782,859.18294 C 490.9435,854.96672 505.63311,849.15775 523.29404,838.89004 C 533.67297,832.85599 537.54001,829.0762 538.33283,824.19061 C 538.67949,822.05441 537.17739,815.75398 535.80906,813.60494 C 534.23158,811.12742 530.35306,812.02741 524.04161,816.33559 C 518.99552,819.78002 505.89596,826.31626 499.69612,828.48321 C 493.31971,830.71185 480.48364,834.08527 473.7288,835.30754 C 465.24164,836.84335 448.22027,838.54604 437.41594,838.9401 C 427.29056,839.30937 409.46356,838.56203 399.03631,837.33124 C 392.91414,836.60859 377.01017,833.0939 371.73161,831.29708 C 364.70886,828.90651 354.26352,823.16517 349.81821,819.25227 C 346.6887,816.49758 344.95855,815.79319 341.32155,815.79319 C 336.05602,815.79319 327.97471,821.20962 326.90981,825.45251 C 326.38132,827.55819 327.77435,835.2084 329.07601,837.3488 C 331.01881,840.54348 343.13308,848.53132 352.52949,852.81336 C 363.76392,857.93306 382.39065,862.30281 396.99394,863.24458 C 405.38637,863.78575 427.90997,863.53844 440.76051,862.76392 z M 409.83171,784.06516 C 411.43643,783.31013 415.72187,780.09596 419.35492,776.92258 C 435.55556,762.77162 437.7669,761.43019 450.27541,758.16566 C 457.76113,756.21204 458.85409,756.07754 467.60169,756.03383 C 475.50806,755.99426 477.74252,756.19132 482.18867,757.32029 C 492.31692,759.8921 496.43205,762.66792 499.52507,769.01445 C 502.42994,774.97491 505.83048,780.92954 507.16113,782.38581 C 509.50553,784.95155 515.56566,783.53298 518.82922,779.65445 C 523.77405,773.77785 521.82184,764.7854 512.71451,751.48838 C 505.32336,740.69701 501.25801,737.61518 490.79938,734.8752 C 483.06956,732.8501 466.42572,732.31826 456.06835,733.76537 C 441.43381,735.81014 433.02706,739.40985 420.04332,749.191 C 406.49269,759.39925 399.5265,766.0491 397.51494,770.69637 C 395.34612,775.70696 397.35839,781.82684 401.93415,784.13641 C 405.19426,785.78192 406.20237,785.77282 409.83171,784.06516 z"
       style="fill:#00578c" />
    <path
       id="path2515"
       d="M 346.51815,900.41232 C 266.73431,896.10215 192.99834,866.1755 134.98668,814.55966 C 103.83955,786.84647 78.148444,753.05272 59.399633,715.13339 C 40.794923,677.50549 31.094009,643.56877 26.62239,600.46874 C 25.595222,590.5683 25.592437,546.69887 26.61837,537.15518 C 31.121325,495.26666 41.438104,458.94254 59.155874,422.5946 C 69.452998,401.47009 79.105611,385.60017 92.456164,367.8454 C 109.90145,344.64508 134.73289,320.10733 160.07869,301.02266 C 178.73996,286.97126 198.9106,274.61456 226.60169,260.27012 C 255.95127,245.06657 270.51112,236.18355 290.49879,221.28626 C 312.44013,204.93284 320.89378,191.92115 328.16202,163.31572 C 329.89538,156.4938 332.72047,141.55987 333.77272,133.65665 C 334.15846,130.75935 334.62826,128.38883 334.8167,128.38883 C 335.35607,128.38883 343.87154,138.21434 353.27592,149.68786 C 388.77295,192.99491 408.24754,210.95494 438.7167,228.48385 C 448.07776,233.86926 452.67419,235.955 474.11461,244.54641 C 501.35993,255.46392 520.15624,265.16866 540.46879,278.80578 C 589.48888,311.71613 630.37022,356.82812 658.25165,408.77745 C 682.90169,454.70596 696.50669,501.55199 699.60246,551.16002 C 700.44637,564.68314 699.98409,592.58406 698.71776,604.55348 C 696.02662,629.99019 691.22179,652.4172 683.52799,675.453 C 678.97735,689.07802 674.30936,700.3252 665.48503,718.92636 C 658.32313,734.02312 655.15669,739.67127 648.80083,748.68665 C 646.65132,751.73563 642.6967,757.3368 640.01285,761.13363 C 617.44352,793.06275 588.65112,821.09298 556.00725,842.91555 C 508.51907,874.66156 452.34496,894.50776 395.73423,899.53958 C 383.56749,900.62099 358.5823,901.06407 346.51815,900.41232 z M 381.53026,895.73511 C 398.53053,895.004 405.33167,894.34898 418.17744,892.20554 C 466.15615,884.19996 513.71141,865.55041 552.79781,839.41207 C 570.74888,827.40764 583.94617,816.47785 600.6726,799.7629 C 619.38576,781.06258 631.98183,765.47794 649.26462,739.64186 C 653.33892,733.55121 660.29787,720.12699 664.89321,709.49358 C 672.51774,691.85047 675.62856,683.98056 679.15603,673.41063 C 694.26125,628.14849 698.86651,585.62733 693.72358,538.90578 C 687.55812,482.89515 667.27998,428.28168 634.89805,380.476 C 631.52842,375.50136 627.2842,369.46177 625.46649,367.05469 C 623.64877,364.64761 621.20242,361.23393 620.0301,359.46874 C 614.96075,351.83548 595.10581,330.22803 582.13301,318.22664 C 546.96534,285.69236 517.33264,266.95972 472.94754,249.20382 C 464.01282,245.62956 454.11202,241.55656 450.94576,240.15272 C 439.55321,235.10154 420.84032,223.53874 407.43159,213.26509 C 390.98164,200.66128 374.44474,183.30871 347.67703,150.56317 C 343.08583,144.94664 338.90215,140.27473 338.37996,140.18114 C 337.58967,140.03951 337.15748,141.55561 335.80158,149.22594 C 330.60834,178.60422 323.61914,195.4905 310.55335,210.227 C 305.92275,215.44973 303.71041,217.35323 292.54116,225.72474 C 276.1758,237.99081 259.75134,248.27872 239.73123,258.80369 C 213.99623,272.33311 207.59537,275.81177 198.59201,281.16154 C 159.18342,304.57802 125.50603,333.5855 99.766299,366.28351 C 76.049166,396.41215 58.88109,428.87485 45.969657,468.00627 C 38.200286,491.55334 33.568456,513.41817 30.703116,540.07285 C 29.689372,549.50315 29.692048,587.76706 30.707136,597.55106 C 35.003196,638.95896 44.86109,674.32212 62.072726,710.06865 C 66.996152,720.294 73.51073,732.23861 75.430747,734.5609 C 76.149121,735.42973 78.642319,739.16044 80.97119,742.8513 C 101.3276,775.11268 130.44143,806.36087 161.53753,829.32391 C 185.52612,847.0384 209.94794,860.5791 237.39709,871.38431 C 273.30891,885.52079 311.67585,893.8472 349.43583,895.69899 C 363.13471,896.37081 366.65534,896.37478 381.53026,895.73511 z"
       style="fill:#014975" />
  </g>
</svg>
